M48
; DRILL file {KiCad 7.0.8} date Sat 28 Oct 2023 11:32:19 PM JST
; FORMAT={-:-/ absolute / inch / decimal}
; #@! TF.CreationDate,2023-10-28T23:32:19+09:00
; #@! TF.GenerationSoftware,Kicad,Pcbnew,7.0.8
; #@! TF.FileFunction,MixedPlating,1,2
FMAT,2
INCH
; #@! TA.AperFunction,Plated,PTH,ViaDrill
T1C0.0157
; #@! TA.AperFunction,Plated,PTH,ComponentDrill
T2C0.0315
; #@! TA.AperFunction,Plated,PTH,ComponentDrill
T3C0.0394
%
G90
G05
T1
X1.0463Y-0.9005
X1.075Y-1.175
X1.225Y-0.975
T2
X1.275Y-0.925
X1.275Y-1.225
X1.375Y-0.925
X1.375Y-1.225
X1.475Y-0.925
X1.475Y-1.225
X1.575Y-0.925
X1.575Y-1.225
X1.675Y-0.925
X1.675Y-1.225
X1.775Y-0.925
X1.775Y-1.225
X1.875Y-0.925
X1.875Y-1.225
T3
X2.025Y-0.95
X2.025Y-1.05
X2.025Y-1.15
T0
M30
