%TF.GenerationSoftware,KiCad,Pcbnew,7.0.8*%
%TF.CreationDate,2023-10-28T23:36:24+09:00*%
%TF.ProjectId,cw_keyboard,63775f6b-6579-4626-9f61-72642e6b6963,rev?*%
%TF.SameCoordinates,Original*%
%TF.FileFunction,Copper,L2,Bot*%
%TF.FilePolarity,Positive*%
%FSLAX46Y46*%
G04 Gerber Fmt 4.6, Leading zero omitted, Abs format (unit mm)*
G04 Created by KiCad (PCBNEW 7.0.8) date 2023-10-28 23:36:24*
%MOMM*%
%LPD*%
G01*
G04 APERTURE LIST*
%TA.AperFunction,ComponentPad*%
%ADD10C,1.700000*%
%TD*%
%TA.AperFunction,ComponentPad*%
%ADD11O,1.700000X1.700000*%
%TD*%
%TA.AperFunction,ComponentPad*%
%ADD12O,1.600000X1.600000*%
%TD*%
%TA.AperFunction,ComponentPad*%
%ADD13R,1.600000X1.600000*%
%TD*%
%TA.AperFunction,ViaPad*%
%ADD14C,0.800000*%
%TD*%
G04 APERTURE END LIST*
D10*
%TO.P,Y1,1,1*%
%TO.N,Net-(U1-XTAL1{slash}PB0)*%
X51435000Y-24130000D03*
D11*
%TO.P,Y1,2,2*%
%TO.N,GND*%
X51435000Y-26670000D03*
%TO.P,Y1,3,3*%
%TO.N,Net-(U1-XTAL2{slash}PB1)*%
X51435000Y-29210000D03*
%TD*%
D12*
%TO.P,U1,14,GND*%
%TO.N,GND*%
X32385000Y-23495000D03*
%TO.P,U1,13,AREF/PA0*%
%TO.N,Net-(U1-AREF{slash}PA0)*%
X34925000Y-23495000D03*
%TO.P,U1,12,PA1*%
%TO.N,Net-(U1-PA1)*%
X37465000Y-23495000D03*
%TO.P,U1,11,PA2*%
%TO.N,Net-(D3-A)*%
X40005000Y-23495000D03*
%TO.P,U1,10,PA3*%
%TO.N,unconnected-(U1-PA3-Pad10)*%
X42545000Y-23495000D03*
%TO.P,U1,9,PA4*%
%TO.N,unconnected-(U1-PA4-Pad9)*%
X45085000Y-23495000D03*
%TO.P,U1,8,PA5*%
%TO.N,unconnected-(U1-PA5-Pad8)*%
X47625000Y-23495000D03*
%TO.P,U1,7,PA6*%
%TO.N,Net-(U1-PA6)*%
X47625000Y-31115000D03*
%TO.P,U1,6,PA7*%
%TO.N,TOUCHPAD*%
X45085000Y-31115000D03*
%TO.P,U1,5,PB2*%
%TO.N,unconnected-(U1-PB2-Pad5)*%
X42545000Y-31115000D03*
%TO.P,U1,4,~{RESET}/PB3*%
%TO.N,unconnected-(U1-~{RESET}{slash}PB3-Pad4)*%
X40005000Y-31115000D03*
%TO.P,U1,3,XTAL2/PB1*%
%TO.N,Net-(U1-XTAL2{slash}PB1)*%
X37465000Y-31115000D03*
%TO.P,U1,2,XTAL1/PB0*%
%TO.N,Net-(U1-XTAL1{slash}PB0)*%
X34925000Y-31115000D03*
D13*
%TO.P,U1,1,VCC*%
%TO.N,VCC*%
X32385000Y-31115000D03*
%TD*%
D14*
%TO.N,GND*%
X27305000Y-29845000D03*
X31115000Y-24765000D03*
X26575500Y-22872325D03*
%TD*%
%TA.AperFunction,Conductor*%
%TO.N,GND*%
G36*
X53283039Y-21020185D02*
G01*
X53328794Y-21072989D01*
X53340000Y-21124500D01*
X53340000Y-33875500D01*
X53320315Y-33942539D01*
X53267511Y-33988294D01*
X53216000Y-33999500D01*
X25524000Y-33999500D01*
X25456961Y-33979815D01*
X25411206Y-33927011D01*
X25400000Y-33875500D01*
X25400000Y-31962870D01*
X31084500Y-31962870D01*
X31084501Y-31962876D01*
X31090908Y-32022483D01*
X31141202Y-32157328D01*
X31141206Y-32157335D01*
X31227452Y-32272544D01*
X31227455Y-32272547D01*
X31342664Y-32358793D01*
X31342671Y-32358797D01*
X31477517Y-32409091D01*
X31477516Y-32409091D01*
X31484444Y-32409835D01*
X31537127Y-32415500D01*
X33232872Y-32415499D01*
X33292483Y-32409091D01*
X33427331Y-32358796D01*
X33542546Y-32272546D01*
X33628796Y-32157331D01*
X33679091Y-32022483D01*
X33682862Y-31987401D01*
X33709599Y-31922855D01*
X33766990Y-31883006D01*
X33836816Y-31880511D01*
X33896905Y-31916163D01*
X33907726Y-31929536D01*
X33924956Y-31954143D01*
X34085858Y-32115045D01*
X34085861Y-32115047D01*
X34272266Y-32245568D01*
X34478504Y-32341739D01*
X34698308Y-32400635D01*
X34860230Y-32414801D01*
X34924998Y-32420468D01*
X34925000Y-32420468D01*
X34925002Y-32420468D01*
X34981807Y-32415498D01*
X35151692Y-32400635D01*
X35371496Y-32341739D01*
X35577734Y-32245568D01*
X35764139Y-32115047D01*
X35925047Y-31954139D01*
X36055568Y-31767734D01*
X36082618Y-31709724D01*
X36128790Y-31657285D01*
X36195983Y-31638133D01*
X36262865Y-31658348D01*
X36307382Y-31709725D01*
X36334429Y-31767728D01*
X36334432Y-31767734D01*
X36464954Y-31954141D01*
X36625858Y-32115045D01*
X36625861Y-32115047D01*
X36812266Y-32245568D01*
X37018504Y-32341739D01*
X37238308Y-32400635D01*
X37400230Y-32414801D01*
X37464998Y-32420468D01*
X37465000Y-32420468D01*
X37465002Y-32420468D01*
X37521807Y-32415498D01*
X37691692Y-32400635D01*
X37911496Y-32341739D01*
X38117734Y-32245568D01*
X38304139Y-32115047D01*
X38465047Y-31954139D01*
X38595568Y-31767734D01*
X38622618Y-31709724D01*
X38668790Y-31657285D01*
X38735983Y-31638133D01*
X38802865Y-31658348D01*
X38847382Y-31709725D01*
X38874429Y-31767728D01*
X38874432Y-31767734D01*
X39004954Y-31954141D01*
X39165858Y-32115045D01*
X39165861Y-32115047D01*
X39352266Y-32245568D01*
X39558504Y-32341739D01*
X39778308Y-32400635D01*
X39940230Y-32414801D01*
X40004998Y-32420468D01*
X40005000Y-32420468D01*
X40005002Y-32420468D01*
X40061807Y-32415498D01*
X40231692Y-32400635D01*
X40451496Y-32341739D01*
X40657734Y-32245568D01*
X40844139Y-32115047D01*
X41005047Y-31954139D01*
X41135568Y-31767734D01*
X41162618Y-31709724D01*
X41208790Y-31657285D01*
X41275983Y-31638133D01*
X41342865Y-31658348D01*
X41387382Y-31709725D01*
X41414429Y-31767728D01*
X41414432Y-31767734D01*
X41544954Y-31954141D01*
X41705858Y-32115045D01*
X41705861Y-32115047D01*
X41892266Y-32245568D01*
X42098504Y-32341739D01*
X42318308Y-32400635D01*
X42480230Y-32414801D01*
X42544998Y-32420468D01*
X42545000Y-32420468D01*
X42545002Y-32420468D01*
X42601807Y-32415498D01*
X42771692Y-32400635D01*
X42991496Y-32341739D01*
X43197734Y-32245568D01*
X43384139Y-32115047D01*
X43545047Y-31954139D01*
X43675568Y-31767734D01*
X43702618Y-31709724D01*
X43748790Y-31657285D01*
X43815983Y-31638133D01*
X43882865Y-31658348D01*
X43927382Y-31709725D01*
X43954429Y-31767728D01*
X43954432Y-31767734D01*
X44084954Y-31954141D01*
X44245858Y-32115045D01*
X44245861Y-32115047D01*
X44432266Y-32245568D01*
X44638504Y-32341739D01*
X44858308Y-32400635D01*
X45020230Y-32414801D01*
X45084998Y-32420468D01*
X45085000Y-32420468D01*
X45085002Y-32420468D01*
X45141807Y-32415498D01*
X45311692Y-32400635D01*
X45531496Y-32341739D01*
X45737734Y-32245568D01*
X45924139Y-32115047D01*
X46085047Y-31954139D01*
X46215568Y-31767734D01*
X46242618Y-31709724D01*
X46288790Y-31657285D01*
X46355983Y-31638133D01*
X46422865Y-31658348D01*
X46467382Y-31709725D01*
X46494429Y-31767728D01*
X46494432Y-31767734D01*
X46624954Y-31954141D01*
X46785858Y-32115045D01*
X46785861Y-32115047D01*
X46972266Y-32245568D01*
X47178504Y-32341739D01*
X47398308Y-32400635D01*
X47560230Y-32414801D01*
X47624998Y-32420468D01*
X47625000Y-32420468D01*
X47625002Y-32420468D01*
X47681807Y-32415498D01*
X47851692Y-32400635D01*
X48071496Y-32341739D01*
X48277734Y-32245568D01*
X48464139Y-32115047D01*
X48625047Y-31954139D01*
X48755568Y-31767734D01*
X48851739Y-31561496D01*
X48910635Y-31341692D01*
X48930468Y-31115000D01*
X48910635Y-30888308D01*
X48851739Y-30668504D01*
X48755568Y-30462266D01*
X48625047Y-30275861D01*
X48625045Y-30275858D01*
X48464141Y-30114954D01*
X48277734Y-29984432D01*
X48277732Y-29984431D01*
X48071497Y-29888261D01*
X48071488Y-29888258D01*
X47851697Y-29829366D01*
X47851693Y-29829365D01*
X47851692Y-29829365D01*
X47851691Y-29829364D01*
X47851686Y-29829364D01*
X47625002Y-29809532D01*
X47624998Y-29809532D01*
X47398313Y-29829364D01*
X47398302Y-29829366D01*
X47178511Y-29888258D01*
X47178502Y-29888261D01*
X46972267Y-29984431D01*
X46972265Y-29984432D01*
X46785858Y-30114954D01*
X46624954Y-30275858D01*
X46494432Y-30462265D01*
X46494431Y-30462267D01*
X46467382Y-30520275D01*
X46421209Y-30572714D01*
X46354016Y-30591866D01*
X46287135Y-30571650D01*
X46242618Y-30520275D01*
X46225658Y-30483905D01*
X46215568Y-30462266D01*
X46085047Y-30275861D01*
X46085045Y-30275858D01*
X45924141Y-30114954D01*
X45737734Y-29984432D01*
X45737732Y-29984431D01*
X45531497Y-29888261D01*
X45531488Y-29888258D01*
X45311697Y-29829366D01*
X45311693Y-29829365D01*
X45311692Y-29829365D01*
X45311691Y-29829364D01*
X45311686Y-29829364D01*
X45085002Y-29809532D01*
X45084998Y-29809532D01*
X44858313Y-29829364D01*
X44858302Y-29829366D01*
X44638511Y-29888258D01*
X44638502Y-29888261D01*
X44432267Y-29984431D01*
X44432265Y-29984432D01*
X44245858Y-30114954D01*
X44084954Y-30275858D01*
X43954432Y-30462265D01*
X43954431Y-30462267D01*
X43927382Y-30520275D01*
X43881209Y-30572714D01*
X43814016Y-30591866D01*
X43747135Y-30571650D01*
X43702618Y-30520275D01*
X43685658Y-30483905D01*
X43675568Y-30462266D01*
X43545047Y-30275861D01*
X43545045Y-30275858D01*
X43384141Y-30114954D01*
X43197734Y-29984432D01*
X43197732Y-29984431D01*
X42991497Y-29888261D01*
X42991488Y-29888258D01*
X42771697Y-29829366D01*
X42771693Y-29829365D01*
X42771692Y-29829365D01*
X42771691Y-29829364D01*
X42771686Y-29829364D01*
X42545002Y-29809532D01*
X42544998Y-29809532D01*
X42318313Y-29829364D01*
X42318302Y-29829366D01*
X42098511Y-29888258D01*
X42098502Y-29888261D01*
X41892267Y-29984431D01*
X41892265Y-29984432D01*
X41705858Y-30114954D01*
X41544954Y-30275858D01*
X41414432Y-30462265D01*
X41414431Y-30462267D01*
X41387382Y-30520275D01*
X41341209Y-30572714D01*
X41274016Y-30591866D01*
X41207135Y-30571650D01*
X41162618Y-30520275D01*
X41145658Y-30483905D01*
X41135568Y-30462266D01*
X41005047Y-30275861D01*
X41005045Y-30275858D01*
X40844141Y-30114954D01*
X40657734Y-29984432D01*
X40657732Y-29984431D01*
X40451497Y-29888261D01*
X40451488Y-29888258D01*
X40231697Y-29829366D01*
X40231693Y-29829365D01*
X40231692Y-29829365D01*
X40231691Y-29829364D01*
X40231686Y-29829364D01*
X40005002Y-29809532D01*
X40004998Y-29809532D01*
X39778313Y-29829364D01*
X39778302Y-29829366D01*
X39558511Y-29888258D01*
X39558502Y-29888261D01*
X39352267Y-29984431D01*
X39352265Y-29984432D01*
X39165858Y-30114954D01*
X39004954Y-30275858D01*
X38874432Y-30462265D01*
X38874431Y-30462267D01*
X38847382Y-30520275D01*
X38801209Y-30572714D01*
X38734016Y-30591866D01*
X38667135Y-30571650D01*
X38622618Y-30520275D01*
X38605658Y-30483905D01*
X38595568Y-30462266D01*
X38465047Y-30275861D01*
X38465045Y-30275858D01*
X38304141Y-30114954D01*
X38117734Y-29984432D01*
X38117732Y-29984431D01*
X37911497Y-29888261D01*
X37911488Y-29888258D01*
X37691697Y-29829366D01*
X37691693Y-29829365D01*
X37691692Y-29829365D01*
X37691691Y-29829364D01*
X37691686Y-29829364D01*
X37465002Y-29809532D01*
X37464998Y-29809532D01*
X37238313Y-29829364D01*
X37238302Y-29829366D01*
X37018511Y-29888258D01*
X37018502Y-29888261D01*
X36812267Y-29984431D01*
X36812265Y-29984432D01*
X36625858Y-30114954D01*
X36464954Y-30275858D01*
X36334432Y-30462265D01*
X36334431Y-30462267D01*
X36307382Y-30520275D01*
X36261209Y-30572714D01*
X36194016Y-30591866D01*
X36127135Y-30571650D01*
X36082618Y-30520275D01*
X36065658Y-30483905D01*
X36055568Y-30462266D01*
X35925047Y-30275861D01*
X35925045Y-30275858D01*
X35764141Y-30114954D01*
X35577734Y-29984432D01*
X35577732Y-29984431D01*
X35371497Y-29888261D01*
X35371488Y-29888258D01*
X35151697Y-29829366D01*
X35151693Y-29829365D01*
X35151692Y-29829365D01*
X35151691Y-29829364D01*
X35151686Y-29829364D01*
X34925002Y-29809532D01*
X34924998Y-29809532D01*
X34698313Y-29829364D01*
X34698302Y-29829366D01*
X34478511Y-29888258D01*
X34478502Y-29888261D01*
X34272267Y-29984431D01*
X34272265Y-29984432D01*
X34085858Y-30114954D01*
X33924954Y-30275858D01*
X33907725Y-30300464D01*
X33853147Y-30344088D01*
X33783648Y-30351280D01*
X33721294Y-30319757D01*
X33685882Y-30259526D01*
X33682861Y-30242591D01*
X33679091Y-30207516D01*
X33628797Y-30072671D01*
X33628793Y-30072664D01*
X33542547Y-29957455D01*
X33542544Y-29957452D01*
X33427335Y-29871206D01*
X33427328Y-29871202D01*
X33292482Y-29820908D01*
X33292483Y-29820908D01*
X33232883Y-29814501D01*
X33232881Y-29814500D01*
X33232873Y-29814500D01*
X33232864Y-29814500D01*
X31537129Y-29814500D01*
X31537123Y-29814501D01*
X31477516Y-29820908D01*
X31342671Y-29871202D01*
X31342664Y-29871206D01*
X31227455Y-29957452D01*
X31227452Y-29957455D01*
X31141206Y-30072664D01*
X31141202Y-30072671D01*
X31090908Y-30207517D01*
X31084501Y-30267116D01*
X31084500Y-30267135D01*
X31084500Y-31962870D01*
X25400000Y-31962870D01*
X25400000Y-29210000D01*
X50079341Y-29210000D01*
X50099936Y-29445403D01*
X50099938Y-29445413D01*
X50161094Y-29673655D01*
X50161096Y-29673659D01*
X50161097Y-29673663D01*
X50224454Y-29809532D01*
X50260965Y-29887830D01*
X50260967Y-29887834D01*
X50369281Y-30042521D01*
X50396505Y-30081401D01*
X50563599Y-30248495D01*
X50660384Y-30316265D01*
X50757165Y-30384032D01*
X50757167Y-30384033D01*
X50757170Y-30384035D01*
X50971337Y-30483903D01*
X51199592Y-30545063D01*
X51387918Y-30561539D01*
X51434999Y-30565659D01*
X51435000Y-30565659D01*
X51435001Y-30565659D01*
X51474234Y-30562226D01*
X51670408Y-30545063D01*
X51898663Y-30483903D01*
X52112830Y-30384035D01*
X52306401Y-30248495D01*
X52473495Y-30081401D01*
X52609035Y-29887830D01*
X52708903Y-29673663D01*
X52770063Y-29445408D01*
X52790659Y-29210000D01*
X52770063Y-28974592D01*
X52708903Y-28746337D01*
X52609035Y-28532171D01*
X52473495Y-28338599D01*
X52473494Y-28338597D01*
X52306402Y-28171506D01*
X52306401Y-28171505D01*
X52120405Y-28041269D01*
X52076781Y-27986692D01*
X52069588Y-27917193D01*
X52101110Y-27854839D01*
X52120405Y-27838119D01*
X52306082Y-27708105D01*
X52473105Y-27541082D01*
X52608600Y-27347578D01*
X52708429Y-27133492D01*
X52708432Y-27133486D01*
X52765636Y-26920000D01*
X51868686Y-26920000D01*
X51894493Y-26879844D01*
X51935000Y-26741889D01*
X51935000Y-26598111D01*
X51894493Y-26460156D01*
X51868686Y-26420000D01*
X52765636Y-26420000D01*
X52765635Y-26419999D01*
X52708432Y-26206513D01*
X52708429Y-26206507D01*
X52608600Y-25992422D01*
X52608599Y-25992420D01*
X52473113Y-25798926D01*
X52473108Y-25798920D01*
X52306078Y-25631890D01*
X52120405Y-25501879D01*
X52076780Y-25447302D01*
X52069588Y-25377804D01*
X52101110Y-25315449D01*
X52120406Y-25298730D01*
X52306401Y-25168495D01*
X52473495Y-25001401D01*
X52609035Y-24807830D01*
X52708903Y-24593663D01*
X52770063Y-24365408D01*
X52790659Y-24130000D01*
X52770063Y-23894592D01*
X52708903Y-23666337D01*
X52609035Y-23452171D01*
X52480294Y-23268308D01*
X52473494Y-23258597D01*
X52306402Y-23091506D01*
X52306395Y-23091501D01*
X52112834Y-22955967D01*
X52112830Y-22955965D01*
X51994672Y-22900867D01*
X51898663Y-22856097D01*
X51898659Y-22856096D01*
X51898655Y-22856094D01*
X51670413Y-22794938D01*
X51670403Y-22794936D01*
X51435001Y-22774341D01*
X51434999Y-22774341D01*
X51199596Y-22794936D01*
X51199586Y-22794938D01*
X50971344Y-22856094D01*
X50971335Y-22856098D01*
X50757171Y-22955964D01*
X50757169Y-22955965D01*
X50563597Y-23091505D01*
X50396505Y-23258597D01*
X50260965Y-23452169D01*
X50260964Y-23452171D01*
X50161098Y-23666335D01*
X50161094Y-23666344D01*
X50099938Y-23894586D01*
X50099936Y-23894596D01*
X50079341Y-24129999D01*
X50079341Y-24130000D01*
X50099936Y-24365403D01*
X50099938Y-24365413D01*
X50161094Y-24593655D01*
X50161096Y-24593659D01*
X50161097Y-24593663D01*
X50175975Y-24625568D01*
X50260965Y-24807830D01*
X50260967Y-24807834D01*
X50396501Y-25001395D01*
X50396506Y-25001402D01*
X50563597Y-25168493D01*
X50563603Y-25168498D01*
X50749594Y-25298730D01*
X50793219Y-25353307D01*
X50800413Y-25422805D01*
X50768890Y-25485160D01*
X50749595Y-25501880D01*
X50563922Y-25631890D01*
X50563920Y-25631891D01*
X50396891Y-25798920D01*
X50396886Y-25798926D01*
X50261400Y-25992420D01*
X50261399Y-25992422D01*
X50161570Y-26206507D01*
X50161567Y-26206513D01*
X50104364Y-26419999D01*
X50104364Y-26420000D01*
X51001314Y-26420000D01*
X50975507Y-26460156D01*
X50935000Y-26598111D01*
X50935000Y-26741889D01*
X50975507Y-26879844D01*
X51001314Y-26920000D01*
X50104364Y-26920000D01*
X50161567Y-27133486D01*
X50161570Y-27133492D01*
X50261399Y-27347578D01*
X50396894Y-27541082D01*
X50563917Y-27708105D01*
X50749595Y-27838119D01*
X50793219Y-27892696D01*
X50800412Y-27962195D01*
X50768890Y-28024549D01*
X50749595Y-28041269D01*
X50563594Y-28171508D01*
X50396505Y-28338597D01*
X50260965Y-28532169D01*
X50260964Y-28532171D01*
X50161098Y-28746335D01*
X50161094Y-28746344D01*
X50099938Y-28974586D01*
X50099936Y-28974596D01*
X50079341Y-29209999D01*
X50079341Y-29210000D01*
X25400000Y-29210000D01*
X25400000Y-23244999D01*
X31106127Y-23244999D01*
X31106128Y-23245000D01*
X32069314Y-23245000D01*
X32057359Y-23256955D01*
X31999835Y-23369852D01*
X31980014Y-23495000D01*
X31999835Y-23620148D01*
X32057359Y-23733045D01*
X32069314Y-23745000D01*
X31106128Y-23745000D01*
X31158730Y-23941317D01*
X31158734Y-23941326D01*
X31254865Y-24147482D01*
X31385342Y-24333820D01*
X31546179Y-24494657D01*
X31732517Y-24625134D01*
X31938673Y-24721265D01*
X31938682Y-24721269D01*
X32134999Y-24773872D01*
X32135000Y-24773871D01*
X32135000Y-23810686D01*
X32146955Y-23822641D01*
X32259852Y-23880165D01*
X32353519Y-23895000D01*
X32416481Y-23895000D01*
X32510148Y-23880165D01*
X32623045Y-23822641D01*
X32635000Y-23810686D01*
X32635000Y-24773872D01*
X32831317Y-24721269D01*
X32831326Y-24721265D01*
X33037482Y-24625134D01*
X33223820Y-24494657D01*
X33384657Y-24333820D01*
X33515132Y-24147484D01*
X33542341Y-24089134D01*
X33588513Y-24036695D01*
X33655707Y-24017542D01*
X33722588Y-24037757D01*
X33767106Y-24089133D01*
X33794431Y-24147732D01*
X33794432Y-24147734D01*
X33924954Y-24334141D01*
X34085858Y-24495045D01*
X34085861Y-24495047D01*
X34272266Y-24625568D01*
X34478504Y-24721739D01*
X34698308Y-24780635D01*
X34860230Y-24794801D01*
X34924998Y-24800468D01*
X34925000Y-24800468D01*
X34925002Y-24800468D01*
X34981673Y-24795509D01*
X35151692Y-24780635D01*
X35371496Y-24721739D01*
X35577734Y-24625568D01*
X35764139Y-24495047D01*
X35925047Y-24334139D01*
X36055568Y-24147734D01*
X36082618Y-24089724D01*
X36128790Y-24037285D01*
X36195983Y-24018133D01*
X36262865Y-24038348D01*
X36307382Y-24089725D01*
X36334429Y-24147728D01*
X36334432Y-24147734D01*
X36464954Y-24334141D01*
X36625858Y-24495045D01*
X36625861Y-24495047D01*
X36812266Y-24625568D01*
X37018504Y-24721739D01*
X37238308Y-24780635D01*
X37400230Y-24794801D01*
X37464998Y-24800468D01*
X37465000Y-24800468D01*
X37465002Y-24800468D01*
X37521673Y-24795509D01*
X37691692Y-24780635D01*
X37911496Y-24721739D01*
X38117734Y-24625568D01*
X38304139Y-24495047D01*
X38465047Y-24334139D01*
X38595568Y-24147734D01*
X38622618Y-24089724D01*
X38668790Y-24037285D01*
X38735983Y-24018133D01*
X38802865Y-24038348D01*
X38847382Y-24089725D01*
X38874429Y-24147728D01*
X38874432Y-24147734D01*
X39004954Y-24334141D01*
X39165858Y-24495045D01*
X39165861Y-24495047D01*
X39352266Y-24625568D01*
X39558504Y-24721739D01*
X39778308Y-24780635D01*
X39940230Y-24794801D01*
X40004998Y-24800468D01*
X40005000Y-24800468D01*
X40005002Y-24800468D01*
X40061673Y-24795509D01*
X40231692Y-24780635D01*
X40451496Y-24721739D01*
X40657734Y-24625568D01*
X40844139Y-24495047D01*
X41005047Y-24334139D01*
X41135568Y-24147734D01*
X41162618Y-24089724D01*
X41208790Y-24037285D01*
X41275983Y-24018133D01*
X41342865Y-24038348D01*
X41387382Y-24089725D01*
X41414429Y-24147728D01*
X41414432Y-24147734D01*
X41544954Y-24334141D01*
X41705858Y-24495045D01*
X41705861Y-24495047D01*
X41892266Y-24625568D01*
X42098504Y-24721739D01*
X42318308Y-24780635D01*
X42480230Y-24794801D01*
X42544998Y-24800468D01*
X42545000Y-24800468D01*
X42545002Y-24800468D01*
X42601673Y-24795509D01*
X42771692Y-24780635D01*
X42991496Y-24721739D01*
X43197734Y-24625568D01*
X43384139Y-24495047D01*
X43545047Y-24334139D01*
X43675568Y-24147734D01*
X43702618Y-24089724D01*
X43748790Y-24037285D01*
X43815983Y-24018133D01*
X43882865Y-24038348D01*
X43927382Y-24089725D01*
X43954429Y-24147728D01*
X43954432Y-24147734D01*
X44084954Y-24334141D01*
X44245858Y-24495045D01*
X44245861Y-24495047D01*
X44432266Y-24625568D01*
X44638504Y-24721739D01*
X44858308Y-24780635D01*
X45020230Y-24794801D01*
X45084998Y-24800468D01*
X45085000Y-24800468D01*
X45085002Y-24800468D01*
X45141673Y-24795509D01*
X45311692Y-24780635D01*
X45531496Y-24721739D01*
X45737734Y-24625568D01*
X45924139Y-24495047D01*
X46085047Y-24334139D01*
X46215568Y-24147734D01*
X46242618Y-24089724D01*
X46288790Y-24037285D01*
X46355983Y-24018133D01*
X46422865Y-24038348D01*
X46467382Y-24089725D01*
X46494429Y-24147728D01*
X46494432Y-24147734D01*
X46624954Y-24334141D01*
X46785858Y-24495045D01*
X46785861Y-24495047D01*
X46972266Y-24625568D01*
X47178504Y-24721739D01*
X47398308Y-24780635D01*
X47560230Y-24794801D01*
X47624998Y-24800468D01*
X47625000Y-24800468D01*
X47625002Y-24800468D01*
X47681673Y-24795509D01*
X47851692Y-24780635D01*
X48071496Y-24721739D01*
X48277734Y-24625568D01*
X48464139Y-24495047D01*
X48625047Y-24334139D01*
X48755568Y-24147734D01*
X48851739Y-23941496D01*
X48910635Y-23721692D01*
X48930468Y-23495000D01*
X48910635Y-23268308D01*
X48851739Y-23048504D01*
X48755568Y-22842266D01*
X48625047Y-22655861D01*
X48625045Y-22655858D01*
X48464141Y-22494954D01*
X48277734Y-22364432D01*
X48277732Y-22364431D01*
X48071497Y-22268261D01*
X48071488Y-22268258D01*
X47851697Y-22209366D01*
X47851693Y-22209365D01*
X47851692Y-22209365D01*
X47851691Y-22209364D01*
X47851686Y-22209364D01*
X47625002Y-22189532D01*
X47624998Y-22189532D01*
X47398313Y-22209364D01*
X47398302Y-22209366D01*
X47178511Y-22268258D01*
X47178502Y-22268261D01*
X46972267Y-22364431D01*
X46972265Y-22364432D01*
X46785858Y-22494954D01*
X46624954Y-22655858D01*
X46494432Y-22842265D01*
X46494431Y-22842267D01*
X46467382Y-22900275D01*
X46421209Y-22952714D01*
X46354016Y-22971866D01*
X46287135Y-22951650D01*
X46242618Y-22900275D01*
X46222018Y-22856098D01*
X46215568Y-22842266D01*
X46085047Y-22655861D01*
X46085045Y-22655858D01*
X45924141Y-22494954D01*
X45737734Y-22364432D01*
X45737732Y-22364431D01*
X45531497Y-22268261D01*
X45531488Y-22268258D01*
X45311697Y-22209366D01*
X45311693Y-22209365D01*
X45311692Y-22209365D01*
X45311691Y-22209364D01*
X45311686Y-22209364D01*
X45085002Y-22189532D01*
X45084998Y-22189532D01*
X44858313Y-22209364D01*
X44858302Y-22209366D01*
X44638511Y-22268258D01*
X44638502Y-22268261D01*
X44432267Y-22364431D01*
X44432265Y-22364432D01*
X44245858Y-22494954D01*
X44084954Y-22655858D01*
X43954432Y-22842265D01*
X43954431Y-22842267D01*
X43927382Y-22900275D01*
X43881209Y-22952714D01*
X43814016Y-22971866D01*
X43747135Y-22951650D01*
X43702618Y-22900275D01*
X43682018Y-22856098D01*
X43675568Y-22842266D01*
X43545047Y-22655861D01*
X43545045Y-22655858D01*
X43384141Y-22494954D01*
X43197734Y-22364432D01*
X43197732Y-22364431D01*
X42991497Y-22268261D01*
X42991488Y-22268258D01*
X42771697Y-22209366D01*
X42771693Y-22209365D01*
X42771692Y-22209365D01*
X42771691Y-22209364D01*
X42771686Y-22209364D01*
X42545002Y-22189532D01*
X42544998Y-22189532D01*
X42318313Y-22209364D01*
X42318302Y-22209366D01*
X42098511Y-22268258D01*
X42098502Y-22268261D01*
X41892267Y-22364431D01*
X41892265Y-22364432D01*
X41705858Y-22494954D01*
X41544954Y-22655858D01*
X41414432Y-22842265D01*
X41414431Y-22842267D01*
X41387382Y-22900275D01*
X41341209Y-22952714D01*
X41274016Y-22971866D01*
X41207135Y-22951650D01*
X41162618Y-22900275D01*
X41142018Y-22856098D01*
X41135568Y-22842266D01*
X41005047Y-22655861D01*
X41005045Y-22655858D01*
X40844141Y-22494954D01*
X40657734Y-22364432D01*
X40657732Y-22364431D01*
X40451497Y-22268261D01*
X40451488Y-22268258D01*
X40231697Y-22209366D01*
X40231693Y-22209365D01*
X40231692Y-22209365D01*
X40231691Y-22209364D01*
X40231686Y-22209364D01*
X40005002Y-22189532D01*
X40004998Y-22189532D01*
X39778313Y-22209364D01*
X39778302Y-22209366D01*
X39558511Y-22268258D01*
X39558502Y-22268261D01*
X39352267Y-22364431D01*
X39352265Y-22364432D01*
X39165858Y-22494954D01*
X39004954Y-22655858D01*
X38874432Y-22842265D01*
X38874431Y-22842267D01*
X38847382Y-22900275D01*
X38801209Y-22952714D01*
X38734016Y-22971866D01*
X38667135Y-22951650D01*
X38622618Y-22900275D01*
X38602018Y-22856098D01*
X38595568Y-22842266D01*
X38465047Y-22655861D01*
X38465045Y-22655858D01*
X38304141Y-22494954D01*
X38117734Y-22364432D01*
X38117732Y-22364431D01*
X37911497Y-22268261D01*
X37911488Y-22268258D01*
X37691697Y-22209366D01*
X37691693Y-22209365D01*
X37691692Y-22209365D01*
X37691691Y-22209364D01*
X37691686Y-22209364D01*
X37465002Y-22189532D01*
X37464998Y-22189532D01*
X37238313Y-22209364D01*
X37238302Y-22209366D01*
X37018511Y-22268258D01*
X37018502Y-22268261D01*
X36812267Y-22364431D01*
X36812265Y-22364432D01*
X36625858Y-22494954D01*
X36464954Y-22655858D01*
X36334432Y-22842265D01*
X36334431Y-22842267D01*
X36307382Y-22900275D01*
X36261209Y-22952714D01*
X36194016Y-22971866D01*
X36127135Y-22951650D01*
X36082618Y-22900275D01*
X36062018Y-22856098D01*
X36055568Y-22842266D01*
X35925047Y-22655861D01*
X35925045Y-22655858D01*
X35764141Y-22494954D01*
X35577734Y-22364432D01*
X35577732Y-22364431D01*
X35371497Y-22268261D01*
X35371488Y-22268258D01*
X35151697Y-22209366D01*
X35151693Y-22209365D01*
X35151692Y-22209365D01*
X35151691Y-22209364D01*
X35151686Y-22209364D01*
X34925002Y-22189532D01*
X34924998Y-22189532D01*
X34698313Y-22209364D01*
X34698302Y-22209366D01*
X34478511Y-22268258D01*
X34478502Y-22268261D01*
X34272267Y-22364431D01*
X34272265Y-22364432D01*
X34085858Y-22494954D01*
X33924954Y-22655858D01*
X33827571Y-22794938D01*
X33794432Y-22842266D01*
X33787983Y-22856097D01*
X33767106Y-22900867D01*
X33720933Y-22953306D01*
X33653739Y-22972457D01*
X33586858Y-22952241D01*
X33542342Y-22900865D01*
X33515135Y-22842520D01*
X33515134Y-22842518D01*
X33384657Y-22656179D01*
X33223820Y-22495342D01*
X33037482Y-22364865D01*
X32831328Y-22268734D01*
X32635000Y-22216127D01*
X32635000Y-23179314D01*
X32623045Y-23167359D01*
X32510148Y-23109835D01*
X32416481Y-23095000D01*
X32353519Y-23095000D01*
X32259852Y-23109835D01*
X32146955Y-23167359D01*
X32135000Y-23179314D01*
X32135000Y-22216127D01*
X31938671Y-22268734D01*
X31732517Y-22364865D01*
X31546179Y-22495342D01*
X31385342Y-22656179D01*
X31254865Y-22842517D01*
X31158734Y-23048673D01*
X31158730Y-23048682D01*
X31106127Y-23244999D01*
X25400000Y-23244999D01*
X25400000Y-21124500D01*
X25419685Y-21057461D01*
X25472489Y-21011706D01*
X25524000Y-21000500D01*
X53216000Y-21000500D01*
X53283039Y-21020185D01*
G37*
%TD.AperFunction*%
%TD*%
M02*
