%TF.GenerationSoftware,KiCad,Pcbnew,7.0.8*%
%TF.CreationDate,2023-10-28T23:36:24+09:00*%
%TF.ProjectId,cw_keyboard,63775f6b-6579-4626-9f61-72642e6b6963,rev?*%
%TF.SameCoordinates,Original*%
%TF.FileFunction,Legend,Bot*%
%TF.FilePolarity,Positive*%
%FSLAX46Y46*%
G04 Gerber Fmt 4.6, Leading zero omitted, Abs format (unit mm)*
G04 Created by KiCad (PCBNEW 7.0.8) date 2023-10-28 23:36:24*
%MOMM*%
%LPD*%
G01*
G04 APERTURE LIST*
%ADD10C,0.000000*%
G04 APERTURE END LIST*
D10*
G36*
X57438889Y-23224790D02*
G01*
X57533198Y-23228058D01*
X57626936Y-23233460D01*
X57720089Y-23240963D01*
X57812640Y-23250531D01*
X57904574Y-23262128D01*
X57995875Y-23275718D01*
X58086528Y-23291268D01*
X58176518Y-23308741D01*
X58265828Y-23328101D01*
X58354443Y-23349315D01*
X58442348Y-23372346D01*
X58529527Y-23397159D01*
X58615965Y-23423718D01*
X58786554Y-23481936D01*
X58642273Y-23878260D01*
X58488742Y-23825857D01*
X58332491Y-23779614D01*
X58173630Y-23739785D01*
X58093255Y-23722356D01*
X58012269Y-23706625D01*
X57930686Y-23692627D01*
X57848519Y-23680391D01*
X57765781Y-23669950D01*
X57682488Y-23661335D01*
X57598652Y-23654580D01*
X57514287Y-23649715D01*
X57429406Y-23646773D01*
X57344025Y-23645785D01*
X57258619Y-23646773D01*
X57173717Y-23649715D01*
X57089334Y-23654580D01*
X57005482Y-23661335D01*
X56922175Y-23669950D01*
X56839427Y-23680391D01*
X56757251Y-23692627D01*
X56675660Y-23706625D01*
X56594668Y-23722356D01*
X56514289Y-23739785D01*
X56434537Y-23758882D01*
X56355424Y-23779614D01*
X56276964Y-23801950D01*
X56199171Y-23825857D01*
X56045639Y-23878260D01*
X55901359Y-23482075D01*
X56071947Y-23423811D01*
X56245566Y-23372404D01*
X56422092Y-23328135D01*
X56511406Y-23308765D01*
X56601401Y-23291285D01*
X56692061Y-23275730D01*
X56783372Y-23262135D01*
X56875317Y-23250535D01*
X56967881Y-23240965D01*
X57061049Y-23233461D01*
X57154806Y-23228058D01*
X57249137Y-23224790D01*
X57344025Y-23223693D01*
X57438889Y-23224790D01*
G37*
G36*
X56975016Y-25813903D02*
G01*
X57184258Y-25822582D01*
X57399147Y-25838103D01*
X57613465Y-25860135D01*
X57821032Y-25887923D01*
X58020822Y-25921058D01*
X58211807Y-25959132D01*
X58392960Y-26001734D01*
X58563253Y-26048456D01*
X58721660Y-26098889D01*
X58796084Y-26125369D01*
X58867152Y-26152623D01*
X58934735Y-26180600D01*
X58998703Y-26209249D01*
X59058930Y-26238519D01*
X59115286Y-26268359D01*
X59167643Y-26298717D01*
X59215872Y-26329542D01*
X59259846Y-26360784D01*
X59299436Y-26392391D01*
X59334513Y-26424311D01*
X59364949Y-26456494D01*
X59390615Y-26488889D01*
X59411384Y-26521444D01*
X59427127Y-26554109D01*
X59437715Y-26586832D01*
X59443019Y-26619562D01*
X59442913Y-26652247D01*
X59437321Y-26684235D01*
X59426348Y-26714903D01*
X59410131Y-26744254D01*
X59388810Y-26772286D01*
X59331406Y-26824395D01*
X59255241Y-26871232D01*
X59161423Y-26912798D01*
X59051057Y-26949092D01*
X58925250Y-26980115D01*
X58785107Y-27005869D01*
X58631735Y-27026353D01*
X58466240Y-27041568D01*
X58289728Y-27051515D01*
X58103306Y-27056195D01*
X57908079Y-27055608D01*
X57705155Y-27049754D01*
X57495638Y-27038635D01*
X57280636Y-27022250D01*
X57066409Y-27001082D01*
X56859099Y-26975734D01*
X56659710Y-26946391D01*
X56469245Y-26913236D01*
X56288708Y-26876453D01*
X56119102Y-26836227D01*
X55961430Y-26792740D01*
X55816696Y-26746177D01*
X55749494Y-26721800D01*
X55685903Y-26696722D01*
X55626048Y-26670967D01*
X55570055Y-26644559D01*
X55518048Y-26617519D01*
X55470155Y-26589871D01*
X55426499Y-26561637D01*
X55387207Y-26532842D01*
X55352403Y-26503508D01*
X55322214Y-26473657D01*
X55296764Y-26443313D01*
X55276179Y-26412499D01*
X55260585Y-26381238D01*
X55250107Y-26349552D01*
X55244870Y-26317465D01*
X55245000Y-26285000D01*
X55250569Y-26252792D01*
X55261475Y-26221481D01*
X55277584Y-26191093D01*
X55298759Y-26161658D01*
X55355768Y-26105756D01*
X55431420Y-26054000D01*
X55524631Y-26006615D01*
X55634319Y-25963826D01*
X55759400Y-25925856D01*
X55898792Y-25892932D01*
X56051411Y-25865276D01*
X56216175Y-25843115D01*
X56392000Y-25826672D01*
X56577804Y-25816173D01*
X56772504Y-25811842D01*
X56975016Y-25813903D01*
G37*
G36*
X58289728Y-27838962D02*
G01*
X58466240Y-27848909D01*
X58631735Y-27864124D01*
X58785107Y-27884608D01*
X58925250Y-27910362D01*
X59051057Y-27941385D01*
X59161423Y-27977679D01*
X59255241Y-28019245D01*
X59331406Y-28066082D01*
X59388810Y-28118191D01*
X59410131Y-28146223D01*
X59426348Y-28175574D01*
X59437321Y-28206242D01*
X59442913Y-28238230D01*
X59443019Y-28270916D01*
X59437715Y-28303647D01*
X59427127Y-28336371D01*
X59411384Y-28369038D01*
X59390615Y-28401596D01*
X59364949Y-28433995D01*
X59334513Y-28466182D01*
X59299436Y-28498106D01*
X59259846Y-28529717D01*
X59215872Y-28560963D01*
X59167642Y-28591792D01*
X59115285Y-28622155D01*
X59058930Y-28651998D01*
X58998703Y-28681272D01*
X58934734Y-28709925D01*
X58867152Y-28737906D01*
X58796084Y-28765163D01*
X58721660Y-28791646D01*
X58563253Y-28842082D01*
X58392960Y-28888804D01*
X58211807Y-28931404D01*
X58020822Y-28969470D01*
X57821032Y-29002594D01*
X57613465Y-29030365D01*
X57399147Y-29052374D01*
X57184258Y-29067895D01*
X56975016Y-29076574D01*
X56772504Y-29078635D01*
X56577804Y-29074304D01*
X56392000Y-29063805D01*
X56216175Y-29047362D01*
X56051411Y-29025201D01*
X55898792Y-28997545D01*
X55759400Y-28964620D01*
X55634319Y-28926651D01*
X55524631Y-28883861D01*
X55431420Y-28836476D01*
X55355768Y-28784721D01*
X55298759Y-28728819D01*
X55277584Y-28699384D01*
X55261475Y-28668996D01*
X55250569Y-28637684D01*
X55245000Y-28605477D01*
X55244870Y-28573011D01*
X55250107Y-28540925D01*
X55260585Y-28509239D01*
X55276179Y-28477978D01*
X55296764Y-28447164D01*
X55322213Y-28416820D01*
X55352403Y-28386969D01*
X55387206Y-28357635D01*
X55426499Y-28328839D01*
X55470155Y-28300606D01*
X55518048Y-28272958D01*
X55570054Y-28245918D01*
X55626048Y-28219509D01*
X55685903Y-28193754D01*
X55749494Y-28168677D01*
X55816695Y-28144299D01*
X55961429Y-28097736D01*
X56119101Y-28054250D01*
X56288708Y-28014023D01*
X56469245Y-27977240D01*
X56659710Y-27944085D01*
X56859099Y-27914742D01*
X57066409Y-27889395D01*
X57280636Y-27868227D01*
X57495638Y-27851842D01*
X57705155Y-27840723D01*
X57908079Y-27834869D01*
X58103306Y-27834282D01*
X58289728Y-27838962D01*
G37*
G36*
X60821947Y-26341215D02*
G01*
X60826937Y-26341389D01*
X60831896Y-26341680D01*
X60836822Y-26342087D01*
X60841718Y-26342610D01*
X60846582Y-26343250D01*
X60851414Y-26344006D01*
X60856216Y-26344878D01*
X60860988Y-26345866D01*
X60865728Y-26346971D01*
X60870439Y-26348192D01*
X60875119Y-26349529D01*
X60879770Y-26350982D01*
X60884391Y-26352552D01*
X60888982Y-26354238D01*
X60893544Y-26356040D01*
X60898008Y-26357994D01*
X60902407Y-26360032D01*
X60906743Y-26362154D01*
X60911015Y-26364360D01*
X60915224Y-26366650D01*
X60919371Y-26369024D01*
X60923455Y-26371482D01*
X60927478Y-26374024D01*
X60931439Y-26376649D01*
X60935340Y-26379359D01*
X60939180Y-26382153D01*
X60942959Y-26385031D01*
X60946679Y-26387993D01*
X60950340Y-26391038D01*
X60953942Y-26394168D01*
X60957485Y-26397382D01*
X60960954Y-26400653D01*
X60964332Y-26404009D01*
X60967620Y-26407448D01*
X60970817Y-26410970D01*
X60973924Y-26414576D01*
X60976941Y-26418264D01*
X60979867Y-26422036D01*
X60982703Y-26425889D01*
X60985448Y-26429826D01*
X60988103Y-26433844D01*
X60990667Y-26437944D01*
X60993141Y-26442126D01*
X60995525Y-26446390D01*
X60997818Y-26450735D01*
X61000021Y-26455161D01*
X61002133Y-26459669D01*
X61004136Y-26464295D01*
X61006009Y-26468976D01*
X61007753Y-26473712D01*
X61009368Y-26478502D01*
X61010854Y-26483346D01*
X61012210Y-26488244D01*
X61013437Y-26493196D01*
X61014535Y-26498201D01*
X61015504Y-26503260D01*
X61016344Y-26508372D01*
X61017055Y-26513536D01*
X61017636Y-26518754D01*
X61018088Y-26524023D01*
X61018411Y-26529346D01*
X61018605Y-26534720D01*
X61018669Y-26540146D01*
X61018576Y-26549628D01*
X61018294Y-26558955D01*
X61017825Y-26568127D01*
X61017167Y-26577142D01*
X61016319Y-26586000D01*
X61015283Y-26594701D01*
X61014057Y-26603245D01*
X61012641Y-26611631D01*
X61011034Y-26619859D01*
X61009236Y-26627928D01*
X61007247Y-26635838D01*
X61005066Y-26643589D01*
X61002693Y-26651180D01*
X61000127Y-26658610D01*
X60997368Y-26665880D01*
X60994416Y-26672988D01*
X60991244Y-26679981D01*
X60987931Y-26686903D01*
X60984475Y-26693755D01*
X60980877Y-26700536D01*
X60977137Y-26707249D01*
X60973254Y-26713892D01*
X60969230Y-26720467D01*
X60965064Y-26726973D01*
X60960755Y-26733412D01*
X60956305Y-26739783D01*
X60951712Y-26746087D01*
X60946977Y-26752325D01*
X60942100Y-26758496D01*
X60937081Y-26764602D01*
X60931920Y-26770642D01*
X60926617Y-26776617D01*
X61973373Y-26776617D01*
X61989342Y-26776701D01*
X62005210Y-26776955D01*
X62020982Y-26777380D01*
X62036660Y-26777978D01*
X62052247Y-26778750D01*
X62067747Y-26779698D01*
X62083163Y-26780824D01*
X62098499Y-26782129D01*
X62106095Y-26782941D01*
X62113589Y-26783880D01*
X62120978Y-26784944D01*
X62128265Y-26786134D01*
X62135448Y-26787450D01*
X62142527Y-26788892D01*
X62149504Y-26790460D01*
X62156377Y-26792154D01*
X62163146Y-26793974D01*
X62169813Y-26795920D01*
X62176375Y-26797992D01*
X62182835Y-26800190D01*
X62189191Y-26802514D01*
X62195444Y-26804964D01*
X62201593Y-26807539D01*
X62207639Y-26810241D01*
X62213511Y-26813138D01*
X62219241Y-26816196D01*
X62224830Y-26819416D01*
X62230278Y-26822796D01*
X62235585Y-26826337D01*
X62240753Y-26830039D01*
X62245780Y-26833900D01*
X62250668Y-26837922D01*
X62255418Y-26842104D01*
X62260029Y-26846445D01*
X62264502Y-26850946D01*
X62268837Y-26855606D01*
X62273035Y-26860425D01*
X62277096Y-26865403D01*
X62281020Y-26870540D01*
X62284809Y-26875835D01*
X62288362Y-26881392D01*
X62291683Y-26887210D01*
X62294771Y-26893290D01*
X62297629Y-26899630D01*
X62300256Y-26906232D01*
X62302652Y-26913093D01*
X62304818Y-26920216D01*
X62306754Y-26927598D01*
X62308462Y-26935240D01*
X62309940Y-26943143D01*
X62311189Y-26951304D01*
X62312211Y-26959726D01*
X62313005Y-26968406D01*
X62313571Y-26977345D01*
X62313911Y-26986543D01*
X62314024Y-26996000D01*
X62313911Y-27005233D01*
X62313571Y-27014222D01*
X62313005Y-27022970D01*
X62312211Y-27031474D01*
X62311189Y-27039735D01*
X62309940Y-27047753D01*
X62308462Y-27055528D01*
X62306754Y-27063059D01*
X62304818Y-27070346D01*
X62302652Y-27077389D01*
X62300256Y-27084188D01*
X62297629Y-27090743D01*
X62294771Y-27097052D01*
X62291683Y-27103117D01*
X62288362Y-27108937D01*
X62284809Y-27114512D01*
X62281020Y-27119931D01*
X62277096Y-27125183D01*
X62273035Y-27130267D01*
X62268837Y-27135184D01*
X62264502Y-27139934D01*
X62260029Y-27144517D01*
X62255418Y-27148933D01*
X62250668Y-27153183D01*
X62245780Y-27157266D01*
X62240753Y-27161183D01*
X62235585Y-27164934D01*
X62230278Y-27168520D01*
X62224830Y-27171940D01*
X62219241Y-27175194D01*
X62213511Y-27178284D01*
X62207639Y-27181208D01*
X62201593Y-27183959D01*
X62195444Y-27186576D01*
X62189191Y-27189062D01*
X62182835Y-27191414D01*
X62176375Y-27193635D01*
X62169813Y-27195723D01*
X62163146Y-27197679D01*
X62156377Y-27199502D01*
X62142527Y-27202751D01*
X62128265Y-27205470D01*
X62113589Y-27207660D01*
X62098499Y-27209320D01*
X62067747Y-27211693D01*
X62052247Y-27212639D01*
X62036659Y-27213420D01*
X62020981Y-27214033D01*
X62005210Y-27214475D01*
X61989342Y-27214743D01*
X61973373Y-27214833D01*
X60635024Y-27214833D01*
X60619637Y-27214743D01*
X60604277Y-27214475D01*
X60588942Y-27214033D01*
X60573632Y-27213420D01*
X60558349Y-27212639D01*
X60543092Y-27211693D01*
X60512655Y-27209320D01*
X60505132Y-27208557D01*
X60497708Y-27207660D01*
X60490380Y-27206632D01*
X60483150Y-27205470D01*
X60476017Y-27204177D01*
X60468982Y-27202751D01*
X60462046Y-27201193D01*
X60455208Y-27199502D01*
X60448468Y-27197679D01*
X60441827Y-27195723D01*
X60435285Y-27193635D01*
X60428842Y-27191414D01*
X60422498Y-27189062D01*
X60416254Y-27186576D01*
X60410110Y-27183959D01*
X60404065Y-27181208D01*
X60398089Y-27178284D01*
X60392251Y-27175194D01*
X60386553Y-27171940D01*
X60380994Y-27168520D01*
X60375575Y-27164934D01*
X60370295Y-27161183D01*
X60365156Y-27157266D01*
X60360157Y-27153183D01*
X60355299Y-27148933D01*
X60350581Y-27144517D01*
X60346005Y-27139934D01*
X60341569Y-27135184D01*
X60337275Y-27130267D01*
X60333122Y-27125183D01*
X60329111Y-27119931D01*
X60325241Y-27114512D01*
X60321585Y-27108937D01*
X60318162Y-27103117D01*
X60314972Y-27097052D01*
X60312016Y-27090743D01*
X60309295Y-27084188D01*
X60306807Y-27077389D01*
X60304555Y-27070346D01*
X60302538Y-27063059D01*
X60300757Y-27055528D01*
X60299212Y-27047753D01*
X60297904Y-27039735D01*
X60296832Y-27031474D01*
X60295998Y-27022970D01*
X60295402Y-27014222D01*
X60295044Y-27005233D01*
X60294925Y-26996000D01*
X60294972Y-26984143D01*
X60295097Y-26973383D01*
X60295274Y-26963735D01*
X60295476Y-26955210D01*
X60295657Y-26951373D01*
X60295887Y-26947612D01*
X60296166Y-26943925D01*
X60296492Y-26940310D01*
X60296864Y-26936767D01*
X60297278Y-26933293D01*
X60297735Y-26929887D01*
X60298232Y-26926547D01*
X60298840Y-26923350D01*
X60299526Y-26920163D01*
X60300293Y-26916986D01*
X60301143Y-26913818D01*
X60302077Y-26910655D01*
X60303096Y-26907498D01*
X60304202Y-26904344D01*
X60305398Y-26901191D01*
X60306676Y-26898110D01*
X60308029Y-26894964D01*
X60310944Y-26888479D01*
X60314118Y-26881735D01*
X60317525Y-26874733D01*
X60319046Y-26871600D01*
X60320715Y-26868403D01*
X60322532Y-26865141D01*
X60324497Y-26861814D01*
X60326608Y-26858423D01*
X60328866Y-26854967D01*
X60333820Y-26847861D01*
X60339355Y-26840497D01*
X60345468Y-26832875D01*
X60352157Y-26824994D01*
X60359417Y-26816855D01*
X60375387Y-26799595D01*
X60392920Y-26780889D01*
X60412030Y-26760735D01*
X60432728Y-26739134D01*
X60454409Y-26716011D01*
X60476877Y-26691299D01*
X60500147Y-26665011D01*
X60524230Y-26637159D01*
X60536497Y-26622709D01*
X60548701Y-26607781D01*
X60560844Y-26592376D01*
X60572926Y-26576492D01*
X60584951Y-26560130D01*
X60596919Y-26543290D01*
X60608833Y-26525972D01*
X60620693Y-26508176D01*
X60630020Y-26491277D01*
X60639193Y-26474896D01*
X60648210Y-26459031D01*
X60657072Y-26443683D01*
X60661427Y-26436203D01*
X60665911Y-26428953D01*
X60670529Y-26421933D01*
X60675280Y-26415141D01*
X60680167Y-26408574D01*
X60685191Y-26402232D01*
X60690354Y-26396113D01*
X60695658Y-26390215D01*
X60698377Y-26387360D01*
X60701161Y-26384582D01*
X60704010Y-26381882D01*
X60706923Y-26379260D01*
X60709901Y-26376715D01*
X60712944Y-26374247D01*
X60716051Y-26371857D01*
X60719222Y-26369545D01*
X60722458Y-26367310D01*
X60725759Y-26365152D01*
X60729125Y-26363072D01*
X60732555Y-26361070D01*
X60736049Y-26359145D01*
X60739609Y-26357298D01*
X60743232Y-26355528D01*
X60746921Y-26353835D01*
X60750683Y-26352285D01*
X60754530Y-26350837D01*
X60758459Y-26349493D01*
X60762471Y-26348250D01*
X60766565Y-26347109D01*
X60770742Y-26346069D01*
X60775000Y-26345130D01*
X60779339Y-26344292D01*
X60783759Y-26343554D01*
X60788259Y-26342916D01*
X60792839Y-26342376D01*
X60797499Y-26341936D01*
X60802238Y-26341595D01*
X60807055Y-26341351D01*
X60816925Y-26341157D01*
X60821947Y-26341215D01*
G37*
G36*
X58786416Y-31408541D02*
G01*
X58615833Y-31466759D01*
X58442232Y-31518132D01*
X58265734Y-31562376D01*
X58176436Y-31581737D01*
X58086460Y-31599210D01*
X57995820Y-31614759D01*
X57904531Y-31628350D01*
X57812608Y-31639947D01*
X57720068Y-31649514D01*
X57626924Y-31657017D01*
X57533192Y-31662420D01*
X57438888Y-31665688D01*
X57344025Y-31666785D01*
X57249137Y-31665688D01*
X57154807Y-31662420D01*
X57061051Y-31657017D01*
X56967884Y-31649514D01*
X56875321Y-31639947D01*
X56783379Y-31628350D01*
X56692073Y-31614759D01*
X56601418Y-31599210D01*
X56511431Y-31581737D01*
X56422125Y-31562376D01*
X56333518Y-31541162D01*
X56245624Y-31518132D01*
X56158460Y-31493319D01*
X56072040Y-31466759D01*
X55901496Y-31408541D01*
X56045777Y-31012218D01*
X56199263Y-31064620D01*
X56355482Y-31110863D01*
X56514323Y-31150693D01*
X56594693Y-31168122D01*
X56675678Y-31183852D01*
X56757263Y-31197851D01*
X56839435Y-31210087D01*
X56922180Y-31220528D01*
X57005485Y-31229142D01*
X57089335Y-31235897D01*
X57173718Y-31240762D01*
X57258619Y-31243704D01*
X57344025Y-31244692D01*
X57429407Y-31243704D01*
X57514287Y-31240762D01*
X57598651Y-31235897D01*
X57682486Y-31229142D01*
X57765778Y-31220528D01*
X57848512Y-31210087D01*
X57930675Y-31197851D01*
X58012252Y-31183852D01*
X58093231Y-31168122D01*
X58173597Y-31150693D01*
X58253335Y-31131596D01*
X58332433Y-31110863D01*
X58410876Y-31088528D01*
X58488650Y-31064620D01*
X58642136Y-31012218D01*
X58786416Y-31408541D01*
G37*
G36*
X62052817Y-24772371D02*
G01*
X62079482Y-24772866D01*
X62105734Y-24773723D01*
X62131572Y-24774968D01*
X62137941Y-24775366D01*
X62144232Y-24775891D01*
X62150447Y-24776542D01*
X62156583Y-24777319D01*
X62162642Y-24778222D01*
X62168624Y-24779250D01*
X62174528Y-24780405D01*
X62180355Y-24781685D01*
X62186104Y-24783092D01*
X62191775Y-24784625D01*
X62197369Y-24786283D01*
X62202886Y-24788067D01*
X62208325Y-24789978D01*
X62213686Y-24792014D01*
X62218970Y-24794176D01*
X62224176Y-24796464D01*
X62229228Y-24798875D01*
X62234150Y-24801457D01*
X62238944Y-24804210D01*
X62243611Y-24807134D01*
X62248149Y-24810227D01*
X62252561Y-24813491D01*
X62256846Y-24816925D01*
X62261004Y-24820529D01*
X62265036Y-24824302D01*
X62268943Y-24828244D01*
X62272725Y-24832356D01*
X62276382Y-24836637D01*
X62279915Y-24841086D01*
X62283324Y-24845704D01*
X62286609Y-24850490D01*
X62289771Y-24855445D01*
X62292723Y-24860669D01*
X62295482Y-24866161D01*
X62298047Y-24871921D01*
X62300421Y-24877950D01*
X62302601Y-24884246D01*
X62304591Y-24890811D01*
X62306388Y-24897643D01*
X62307995Y-24904744D01*
X62309411Y-24912113D01*
X62310638Y-24919750D01*
X62311674Y-24927654D01*
X62312521Y-24935827D01*
X62313179Y-24944269D01*
X62313649Y-24952978D01*
X62313930Y-24961955D01*
X62314024Y-24971200D01*
X62313930Y-24980420D01*
X62313649Y-24989371D01*
X62313179Y-24998053D01*
X62312521Y-25006467D01*
X62311674Y-25014612D01*
X62310638Y-25022488D01*
X62309411Y-25030095D01*
X62307995Y-25037432D01*
X62306388Y-25044499D01*
X62304591Y-25051297D01*
X62302601Y-25057824D01*
X62300421Y-25064082D01*
X62298047Y-25070068D01*
X62295482Y-25075785D01*
X62292723Y-25081230D01*
X62289771Y-25086404D01*
X62286610Y-25091336D01*
X62283330Y-25096106D01*
X62279930Y-25100715D01*
X62276410Y-25105162D01*
X62272770Y-25109448D01*
X62269009Y-25113573D01*
X62265127Y-25117535D01*
X62261125Y-25121337D01*
X62257001Y-25124977D01*
X62252756Y-25128455D01*
X62248390Y-25131772D01*
X62243901Y-25134928D01*
X62239291Y-25137922D01*
X62234559Y-25140754D01*
X62229705Y-25143425D01*
X62224727Y-25145935D01*
X62219594Y-25148351D01*
X62214373Y-25150637D01*
X62209065Y-25152795D01*
X62203669Y-25154823D01*
X62198187Y-25156722D01*
X62192617Y-25158492D01*
X62186960Y-25160133D01*
X62181216Y-25161644D01*
X62175384Y-25163027D01*
X62169466Y-25164280D01*
X62163460Y-25165404D01*
X62157367Y-25166399D01*
X62151187Y-25167264D01*
X62144919Y-25168001D01*
X62138565Y-25168608D01*
X62132123Y-25169086D01*
X62106082Y-25170735D01*
X62079654Y-25171945D01*
X62052865Y-25172690D01*
X62025738Y-25172944D01*
X61823443Y-25172944D01*
X61823443Y-25750066D01*
X62025738Y-25750066D01*
X62052865Y-25750273D01*
X62079654Y-25750893D01*
X62106082Y-25751926D01*
X62132123Y-25753374D01*
X62138565Y-25753900D01*
X62144919Y-25754549D01*
X62151187Y-25755321D01*
X62157367Y-25756215D01*
X62163460Y-25757233D01*
X62169466Y-25758373D01*
X62175384Y-25759636D01*
X62181216Y-25761021D01*
X62186960Y-25762530D01*
X62192617Y-25764161D01*
X62198187Y-25765914D01*
X62203669Y-25767791D01*
X62209065Y-25769790D01*
X62214373Y-25771912D01*
X62219594Y-25774157D01*
X62224727Y-25776524D01*
X62229705Y-25779009D01*
X62234559Y-25781660D01*
X62239291Y-25784474D01*
X62243901Y-25787454D01*
X62248390Y-25790598D01*
X62252756Y-25793907D01*
X62257001Y-25797381D01*
X62261125Y-25801019D01*
X62265127Y-25804822D01*
X62269009Y-25808790D01*
X62272770Y-25812922D01*
X62276410Y-25817220D01*
X62279930Y-25821682D01*
X62283330Y-25826308D01*
X62286610Y-25831100D01*
X62289771Y-25836056D01*
X62292723Y-25841280D01*
X62295482Y-25846772D01*
X62298047Y-25852533D01*
X62300421Y-25858561D01*
X62302601Y-25864857D01*
X62304591Y-25871422D01*
X62306388Y-25878254D01*
X62307995Y-25885355D01*
X62309411Y-25892724D01*
X62310638Y-25900361D01*
X62311674Y-25908265D01*
X62312521Y-25916438D01*
X62313179Y-25924879D01*
X62313649Y-25933588D01*
X62313930Y-25942566D01*
X62314024Y-25951811D01*
X62313930Y-25960904D01*
X62313649Y-25969736D01*
X62313179Y-25978306D01*
X62312521Y-25986615D01*
X62311674Y-25994662D01*
X62310638Y-26002447D01*
X62309411Y-26009971D01*
X62307995Y-26017233D01*
X62306388Y-26024234D01*
X62304591Y-26030972D01*
X62302601Y-26037450D01*
X62300421Y-26043665D01*
X62298047Y-26049620D01*
X62295482Y-26055312D01*
X62292723Y-26060743D01*
X62289771Y-26065912D01*
X62286609Y-26070842D01*
X62283324Y-26075608D01*
X62279915Y-26080208D01*
X62276382Y-26084643D01*
X62272725Y-26088912D01*
X62268943Y-26093016D01*
X62265036Y-26096953D01*
X62261004Y-26100725D01*
X62256846Y-26104330D01*
X62252561Y-26107769D01*
X62248149Y-26111041D01*
X62243611Y-26114146D01*
X62238944Y-26117084D01*
X62234150Y-26119854D01*
X62229228Y-26122457D01*
X62224176Y-26124892D01*
X62218970Y-26127159D01*
X62213686Y-26129310D01*
X62208325Y-26131343D01*
X62202886Y-26133259D01*
X62197369Y-26135057D01*
X62191775Y-26136737D01*
X62186104Y-26138298D01*
X62180355Y-26139740D01*
X62174528Y-26141063D01*
X62168624Y-26142266D01*
X62162642Y-26143348D01*
X62156583Y-26144310D01*
X62150447Y-26145150D01*
X62144232Y-26145869D01*
X62131572Y-26146941D01*
X62105734Y-26148590D01*
X62079482Y-26149800D01*
X62052817Y-26150546D01*
X62025738Y-26150800D01*
X61982193Y-26150800D01*
X61934131Y-26150517D01*
X61885230Y-26149680D01*
X61835477Y-26148299D01*
X61784858Y-26146389D01*
X61584215Y-26139224D01*
X61443105Y-26097662D01*
X60566122Y-25839363D01*
X60539668Y-25831119D01*
X60513653Y-25822499D01*
X60488104Y-25813493D01*
X60475511Y-25808840D01*
X60463045Y-25804085D01*
X60456844Y-25801601D01*
X60450747Y-25799008D01*
X60444753Y-25796305D01*
X60438865Y-25793491D01*
X60433081Y-25790568D01*
X60427403Y-25787536D01*
X60421831Y-25784393D01*
X60416364Y-25781141D01*
X60411005Y-25777778D01*
X60405752Y-25774306D01*
X60400606Y-25770725D01*
X60395569Y-25767033D01*
X60390640Y-25763231D01*
X60385819Y-25759320D01*
X60381107Y-25755299D01*
X60376505Y-25751168D01*
X60371962Y-25746957D01*
X60367533Y-25742590D01*
X60363217Y-25738068D01*
X60359014Y-25733392D01*
X60354926Y-25728560D01*
X60350951Y-25723573D01*
X60347091Y-25718431D01*
X60343346Y-25713135D01*
X60339715Y-25707683D01*
X60336198Y-25702076D01*
X60332797Y-25696314D01*
X60329511Y-25690397D01*
X60326341Y-25684325D01*
X60323286Y-25678098D01*
X60320347Y-25671716D01*
X60317525Y-25665179D01*
X60314795Y-25658513D01*
X60312241Y-25651639D01*
X60309861Y-25644558D01*
X60307656Y-25637270D01*
X60305627Y-25629772D01*
X60303773Y-25622067D01*
X60302094Y-25614151D01*
X60300592Y-25606027D01*
X60299265Y-25597692D01*
X60298115Y-25589148D01*
X60297141Y-25580392D01*
X60296343Y-25571425D01*
X60295280Y-25552857D01*
X60294925Y-25533439D01*
X60294925Y-25478868D01*
X60669751Y-25478868D01*
X61443105Y-25692189D01*
X61443105Y-25233578D01*
X60669751Y-25446898D01*
X60669751Y-25478868D01*
X60294925Y-25478868D01*
X60294925Y-25389572D01*
X60295013Y-25379556D01*
X60295280Y-25369767D01*
X60295723Y-25360205D01*
X60296343Y-25350871D01*
X60297141Y-25341763D01*
X60298115Y-25332884D01*
X60299265Y-25324234D01*
X60300592Y-25315812D01*
X60302094Y-25307620D01*
X60303773Y-25299658D01*
X60305627Y-25291925D01*
X60307656Y-25284423D01*
X60309861Y-25277153D01*
X60312241Y-25270113D01*
X60314795Y-25263305D01*
X60317525Y-25256729D01*
X60320347Y-25250315D01*
X60323286Y-25244043D01*
X60326341Y-25237913D01*
X60329511Y-25231927D01*
X60332797Y-25226083D01*
X60336198Y-25220382D01*
X60339715Y-25214825D01*
X60343346Y-25209411D01*
X60347091Y-25204141D01*
X60350951Y-25199014D01*
X60354926Y-25194032D01*
X60359014Y-25189194D01*
X60363217Y-25184501D01*
X60367533Y-25179953D01*
X60371962Y-25175549D01*
X60376505Y-25171291D01*
X60381107Y-25167205D01*
X60385819Y-25163217D01*
X60390640Y-25159326D01*
X60395569Y-25155534D01*
X60400606Y-25151840D01*
X60405752Y-25148245D01*
X60411005Y-25144749D01*
X60416364Y-25141353D01*
X60421831Y-25138057D01*
X60427403Y-25134862D01*
X60433081Y-25131767D01*
X60438865Y-25128774D01*
X60444753Y-25125883D01*
X60450747Y-25123094D01*
X60456844Y-25120407D01*
X60463045Y-25117823D01*
X60475511Y-25112947D01*
X60488104Y-25108239D01*
X60500819Y-25103703D01*
X60513653Y-25099340D01*
X60526604Y-25095151D01*
X60539668Y-25091138D01*
X60552842Y-25087303D01*
X60566122Y-25083648D01*
X60819561Y-25009612D01*
X61075996Y-24932063D01*
X61331811Y-24854463D01*
X61584215Y-24780480D01*
X61631758Y-24779205D01*
X61681782Y-24777724D01*
X61784858Y-24774416D01*
X61836431Y-24773383D01*
X61887384Y-24772763D01*
X61936183Y-24772332D01*
X61982193Y-24772211D01*
X62025738Y-24772211D01*
X62052817Y-24772371D01*
G37*
G36*
X58312372Y-30106296D02*
G01*
X58197890Y-30145403D01*
X58081363Y-30179914D01*
X57962875Y-30209638D01*
X57902923Y-30222645D01*
X57842512Y-30234385D01*
X57781655Y-30244832D01*
X57720361Y-30253964D01*
X57658640Y-30261756D01*
X57596505Y-30268185D01*
X57533965Y-30273227D01*
X57471031Y-30276858D01*
X57407714Y-30279054D01*
X57344025Y-30279791D01*
X57280311Y-30279054D01*
X57216973Y-30276858D01*
X57154020Y-30273227D01*
X57091463Y-30268185D01*
X57029312Y-30261756D01*
X56967578Y-30253964D01*
X56906270Y-30244832D01*
X56845400Y-30234385D01*
X56784976Y-30222645D01*
X56725011Y-30209638D01*
X56665513Y-30195386D01*
X56606493Y-30179914D01*
X56547962Y-30163245D01*
X56489930Y-30145403D01*
X56375403Y-30106296D01*
X56519684Y-29709973D01*
X56617159Y-29743258D01*
X56716370Y-29772624D01*
X56817245Y-29797911D01*
X56868283Y-29808974D01*
X56919710Y-29818958D01*
X56971517Y-29827843D01*
X57023694Y-29835607D01*
X57076232Y-29842232D01*
X57129122Y-29847697D01*
X57182356Y-29851982D01*
X57235924Y-29855068D01*
X57289817Y-29856934D01*
X57344025Y-29857561D01*
X57398232Y-29856934D01*
X57452121Y-29855068D01*
X57505682Y-29851982D01*
X57558906Y-29847697D01*
X57611786Y-29842232D01*
X57664313Y-29835607D01*
X57716477Y-29827843D01*
X57768271Y-29818958D01*
X57819685Y-29808974D01*
X57870711Y-29797911D01*
X57921340Y-29785787D01*
X57971564Y-29772624D01*
X58021373Y-29758441D01*
X58070759Y-29743258D01*
X58168229Y-29709973D01*
X58312372Y-30106296D01*
G37*
G36*
X62111118Y-27492565D02*
G01*
X62116003Y-27492750D01*
X62120872Y-27493058D01*
X62125726Y-27493490D01*
X62130565Y-27494047D01*
X62135389Y-27494728D01*
X62140197Y-27495534D01*
X62144991Y-27496466D01*
X62149770Y-27497524D01*
X62154535Y-27498708D01*
X62159286Y-27500019D01*
X62164023Y-27501457D01*
X62168746Y-27503023D01*
X62173456Y-27504716D01*
X62178152Y-27506538D01*
X62182835Y-27508489D01*
X62187504Y-27510530D01*
X62192105Y-27512675D01*
X62196638Y-27514924D01*
X62201105Y-27517276D01*
X62205504Y-27519733D01*
X62209837Y-27522294D01*
X62214103Y-27524960D01*
X62218302Y-27527730D01*
X62222435Y-27530605D01*
X62226503Y-27533586D01*
X62230504Y-27536672D01*
X62234440Y-27539863D01*
X62238311Y-27543160D01*
X62242116Y-27546563D01*
X62245857Y-27550073D01*
X62249532Y-27553688D01*
X62253082Y-27557458D01*
X62256548Y-27561324D01*
X62259930Y-27565288D01*
X62263229Y-27569351D01*
X62266444Y-27573512D01*
X62269577Y-27577771D01*
X62272627Y-27582131D01*
X62275594Y-27586589D01*
X62278479Y-27591148D01*
X62281282Y-27595808D01*
X62284003Y-27600568D01*
X62286642Y-27605430D01*
X62289200Y-27610393D01*
X62291676Y-27615459D01*
X62294071Y-27620627D01*
X62296386Y-27625898D01*
X62298537Y-27631245D01*
X62300546Y-27636692D01*
X62302414Y-27642239D01*
X62304141Y-27647886D01*
X62305728Y-27653633D01*
X62307174Y-27659481D01*
X62308481Y-27665429D01*
X62309649Y-27671476D01*
X62310677Y-27677624D01*
X62311568Y-27683872D01*
X62312320Y-27690220D01*
X62312934Y-27696669D01*
X62313412Y-27703217D01*
X62313752Y-27709866D01*
X62314024Y-27723463D01*
X62314024Y-28481934D01*
X62313940Y-28496016D01*
X62313686Y-28510149D01*
X62313261Y-28524335D01*
X62312663Y-28538571D01*
X62311891Y-28552860D01*
X62310943Y-28567200D01*
X62309817Y-28581592D01*
X62308512Y-28596035D01*
X62306780Y-28610337D01*
X62304582Y-28624307D01*
X62301916Y-28637947D01*
X62298780Y-28651260D01*
X62297035Y-28657796D01*
X62295172Y-28664251D01*
X62293190Y-28670626D01*
X62291091Y-28676922D01*
X62288872Y-28683139D01*
X62286535Y-28689277D01*
X62284078Y-28695336D01*
X62281503Y-28701318D01*
X62278815Y-28707167D01*
X62275973Y-28712880D01*
X62272975Y-28718457D01*
X62269821Y-28723898D01*
X62266512Y-28729203D01*
X62263046Y-28734370D01*
X62259425Y-28739401D01*
X62255647Y-28744295D01*
X62251712Y-28749052D01*
X62247620Y-28753671D01*
X62243372Y-28758152D01*
X62238966Y-28762496D01*
X62234403Y-28766701D01*
X62229682Y-28770769D01*
X62224803Y-28774697D01*
X62219766Y-28778488D01*
X62214479Y-28782092D01*
X62208952Y-28785464D01*
X62203186Y-28788603D01*
X62197179Y-28791510D01*
X62190932Y-28794184D01*
X62184444Y-28796626D01*
X62177714Y-28798835D01*
X62170743Y-28800812D01*
X62163529Y-28802556D01*
X62156072Y-28804067D01*
X62148373Y-28805346D01*
X62140430Y-28806393D01*
X62132243Y-28807207D01*
X62123812Y-28807788D01*
X62115137Y-28808137D01*
X62106216Y-28808253D01*
X62097523Y-28808137D01*
X62089066Y-28807788D01*
X62080845Y-28807207D01*
X62072859Y-28806393D01*
X62065109Y-28805346D01*
X62057595Y-28804067D01*
X62050317Y-28802556D01*
X62043274Y-28800812D01*
X62036468Y-28798835D01*
X62029897Y-28796626D01*
X62023561Y-28794184D01*
X62017462Y-28791510D01*
X62011598Y-28788603D01*
X62005971Y-28785464D01*
X62000578Y-28782092D01*
X61995422Y-28778488D01*
X61990411Y-28774697D01*
X61985558Y-28770769D01*
X61980864Y-28766701D01*
X61976328Y-28762496D01*
X61971950Y-28758152D01*
X61967730Y-28753671D01*
X61963669Y-28749052D01*
X61959765Y-28744295D01*
X61956020Y-28739401D01*
X61952434Y-28734370D01*
X61949005Y-28729203D01*
X61945735Y-28723898D01*
X61942623Y-28718457D01*
X61939670Y-28712880D01*
X61936874Y-28707167D01*
X61934237Y-28701318D01*
X61929257Y-28689277D01*
X61924755Y-28676922D01*
X61920730Y-28664251D01*
X61917184Y-28651260D01*
X61914116Y-28637947D01*
X61911525Y-28624307D01*
X61909413Y-28610337D01*
X61907779Y-28596035D01*
X61906371Y-28581592D01*
X61905145Y-28567200D01*
X61904104Y-28552860D01*
X61903248Y-28538571D01*
X61902580Y-28524335D01*
X61902101Y-28510149D01*
X61901812Y-28496016D01*
X61901715Y-28481934D01*
X61901715Y-28066870D01*
X61881321Y-28046474D01*
X60592029Y-28787858D01*
X60587986Y-28789957D01*
X60583815Y-28791913D01*
X60579518Y-28793723D01*
X60575097Y-28795386D01*
X60570553Y-28796900D01*
X60565888Y-28798265D01*
X60561103Y-28799477D01*
X60556201Y-28800536D01*
X60551104Y-28801557D01*
X60545945Y-28802446D01*
X60540724Y-28803203D01*
X60535444Y-28803826D01*
X60530105Y-28804314D01*
X60524710Y-28804664D01*
X60519260Y-28804875D01*
X60513757Y-28804946D01*
X60508947Y-28804885D01*
X60504132Y-28804701D01*
X60499310Y-28804395D01*
X60494482Y-28803968D01*
X60489647Y-28803420D01*
X60484805Y-28802751D01*
X60479957Y-28801962D01*
X60475103Y-28801053D01*
X60470242Y-28800024D01*
X60465375Y-28798877D01*
X60460501Y-28797610D01*
X60455621Y-28796226D01*
X60450735Y-28794723D01*
X60445841Y-28793103D01*
X60440942Y-28791366D01*
X60436036Y-28789512D01*
X60431182Y-28787597D01*
X60426385Y-28785572D01*
X60421648Y-28783438D01*
X60416969Y-28781196D01*
X60412350Y-28778846D01*
X60407789Y-28776388D01*
X60403288Y-28773822D01*
X60398846Y-28771150D01*
X60394464Y-28768370D01*
X60390142Y-28765485D01*
X60385880Y-28762494D01*
X60381679Y-28759398D01*
X60377538Y-28756196D01*
X60373458Y-28752890D01*
X60369438Y-28749480D01*
X60365480Y-28745966D01*
X60361550Y-28742320D01*
X60357716Y-28738563D01*
X60353979Y-28734696D01*
X60350339Y-28730719D01*
X60346796Y-28726631D01*
X60343350Y-28722433D01*
X60340001Y-28718123D01*
X60336748Y-28713703D01*
X60333593Y-28709170D01*
X60330534Y-28704527D01*
X60327572Y-28699771D01*
X60324708Y-28694903D01*
X60321940Y-28689923D01*
X60319268Y-28684831D01*
X60316694Y-28679626D01*
X60314217Y-28674308D01*
X60311888Y-28668940D01*
X60309708Y-28663481D01*
X60307678Y-28657931D01*
X60305796Y-28652290D01*
X60304064Y-28646556D01*
X60302481Y-28640730D01*
X60301048Y-28634811D01*
X60299765Y-28628798D01*
X60298632Y-28622692D01*
X60297650Y-28616492D01*
X60296818Y-28610198D01*
X60296137Y-28603809D01*
X60295607Y-28597324D01*
X60295228Y-28590744D01*
X60295000Y-28584067D01*
X60294925Y-28577294D01*
X60294925Y-27818823D01*
X60295021Y-27804354D01*
X60295310Y-27789884D01*
X60295789Y-27775415D01*
X60296458Y-27760945D01*
X60297313Y-27746476D01*
X60298355Y-27732007D01*
X60299580Y-27717537D01*
X60300988Y-27703068D01*
X60301752Y-27695925D01*
X60302648Y-27688863D01*
X60303677Y-27681881D01*
X60304838Y-27674979D01*
X60306132Y-27668158D01*
X60307558Y-27661416D01*
X60309116Y-27654753D01*
X60310807Y-27648170D01*
X60312630Y-27641666D01*
X60314585Y-27635241D01*
X60316673Y-27628895D01*
X60318894Y-27622627D01*
X60321247Y-27616438D01*
X60323732Y-27610326D01*
X60326350Y-27604293D01*
X60329100Y-27598337D01*
X60331950Y-27592540D01*
X60334972Y-27586878D01*
X60338164Y-27581351D01*
X60341528Y-27575959D01*
X60345063Y-27570702D01*
X60348769Y-27565580D01*
X60352646Y-27560592D01*
X60356695Y-27555739D01*
X60360915Y-27551019D01*
X60365305Y-27546433D01*
X60369868Y-27541981D01*
X60374601Y-27537663D01*
X60379505Y-27533477D01*
X60384581Y-27529425D01*
X60389828Y-27525505D01*
X60395246Y-27521718D01*
X60400820Y-27518166D01*
X60406640Y-27514845D01*
X60412705Y-27511756D01*
X60419015Y-27508898D01*
X60425569Y-27506272D01*
X60432368Y-27503875D01*
X60439411Y-27501709D01*
X60446698Y-27499773D01*
X60454229Y-27498066D01*
X60462004Y-27496588D01*
X60470022Y-27495338D01*
X60478283Y-27494317D01*
X60486788Y-27493523D01*
X60495535Y-27492957D01*
X60504524Y-27492617D01*
X60513757Y-27492504D01*
X60521989Y-27492617D01*
X60529996Y-27492957D01*
X60537777Y-27493523D01*
X60545333Y-27494317D01*
X60552664Y-27495338D01*
X60559769Y-27496588D01*
X60566649Y-27498066D01*
X60573305Y-27499773D01*
X60579737Y-27501709D01*
X60585944Y-27503875D01*
X60591927Y-27506272D01*
X60597686Y-27508898D01*
X60603221Y-27511756D01*
X60608533Y-27514845D01*
X60613622Y-27518166D01*
X60618488Y-27521718D01*
X60623171Y-27525505D01*
X60627712Y-27529425D01*
X60632111Y-27533477D01*
X60636368Y-27537663D01*
X60640483Y-27541981D01*
X60644455Y-27546433D01*
X60648286Y-27551019D01*
X60651974Y-27555739D01*
X60655520Y-27560592D01*
X60658925Y-27565580D01*
X60662187Y-27570702D01*
X60665307Y-27575959D01*
X60668284Y-27581351D01*
X60671120Y-27586878D01*
X60673814Y-27592540D01*
X60676365Y-27598337D01*
X60681010Y-27610326D01*
X60685230Y-27622627D01*
X60689027Y-27635241D01*
X60692402Y-27648170D01*
X60695358Y-27661416D01*
X60697895Y-27674979D01*
X60700016Y-27688863D01*
X60701721Y-27703068D01*
X60703026Y-27717537D01*
X60704152Y-27732007D01*
X60705100Y-27746476D01*
X60705873Y-27760945D01*
X60706471Y-27775415D01*
X60706896Y-27789884D01*
X60707149Y-27804354D01*
X60707234Y-27818823D01*
X60707234Y-28233888D01*
X60730385Y-28257038D01*
X62019676Y-27512899D01*
X62022357Y-27511281D01*
X62025024Y-27509734D01*
X62027679Y-27508259D01*
X62030321Y-27506857D01*
X62032950Y-27505527D01*
X62035566Y-27504270D01*
X62038169Y-27503087D01*
X62040759Y-27501978D01*
X62043337Y-27500943D01*
X62045901Y-27499982D01*
X62048453Y-27499097D01*
X62050991Y-27498287D01*
X62053517Y-27497553D01*
X62056030Y-27496896D01*
X62058530Y-27496315D01*
X62061017Y-27495811D01*
X62065972Y-27495036D01*
X62071122Y-27494364D01*
X62076469Y-27493796D01*
X62082015Y-27493331D01*
X62087761Y-27492969D01*
X62093709Y-27492711D01*
X62099860Y-27492556D01*
X62106216Y-27492504D01*
X62111118Y-27492565D01*
G37*
G36*
X61666523Y-23106949D02*
G01*
X61679974Y-23107302D01*
X61694023Y-23107893D01*
X61708670Y-23108727D01*
X61723918Y-23109807D01*
X61739769Y-23111135D01*
X61756223Y-23112714D01*
X61773283Y-23114550D01*
X61790633Y-23116882D01*
X61808164Y-23119745D01*
X61825876Y-23123141D01*
X61843769Y-23127072D01*
X61861843Y-23131539D01*
X61880097Y-23136544D01*
X61898533Y-23142088D01*
X61917149Y-23148173D01*
X61935882Y-23154827D01*
X61954561Y-23162178D01*
X61973185Y-23170226D01*
X61991753Y-23178972D01*
X62010262Y-23188416D01*
X62028712Y-23198558D01*
X62047100Y-23209397D01*
X62065426Y-23220934D01*
X62074463Y-23226974D01*
X62083383Y-23233259D01*
X62092188Y-23239790D01*
X62100876Y-23246567D01*
X62109448Y-23253591D01*
X62117904Y-23260861D01*
X62126243Y-23268378D01*
X62134466Y-23276142D01*
X62142573Y-23284152D01*
X62150563Y-23292410D01*
X62158437Y-23300916D01*
X62166195Y-23309669D01*
X62173837Y-23318670D01*
X62181362Y-23327919D01*
X62188771Y-23337416D01*
X62196064Y-23347162D01*
X62203163Y-23357147D01*
X62210095Y-23367413D01*
X62216859Y-23377959D01*
X62223457Y-23388787D01*
X62229888Y-23399896D01*
X62236154Y-23411286D01*
X62248188Y-23434908D01*
X62259564Y-23459655D01*
X62270284Y-23485525D01*
X62280352Y-23512520D01*
X62289771Y-23540639D01*
X62298194Y-23569964D01*
X62305484Y-23600682D01*
X62311644Y-23632788D01*
X62316677Y-23666281D01*
X62320585Y-23701155D01*
X62323373Y-23737408D01*
X62325043Y-23775038D01*
X62325599Y-23814040D01*
X62325393Y-23824090D01*
X62324773Y-23838932D01*
X62323739Y-23858553D01*
X62322292Y-23882942D01*
X62321361Y-23896558D01*
X62320014Y-23910740D01*
X62318247Y-23925483D01*
X62316056Y-23940786D01*
X62313440Y-23956643D01*
X62310393Y-23973053D01*
X62306914Y-23990012D01*
X62302999Y-24007517D01*
X62298568Y-24025506D01*
X62293539Y-24043714D01*
X62287909Y-24062138D01*
X62281675Y-24080777D01*
X62274833Y-24099629D01*
X62267382Y-24118692D01*
X62259316Y-24137966D01*
X62250634Y-24157448D01*
X62245969Y-24167240D01*
X62241067Y-24176930D01*
X62235930Y-24186516D01*
X62230556Y-24196000D01*
X62224945Y-24205381D01*
X62219098Y-24214660D01*
X62213014Y-24223837D01*
X62206692Y-24232912D01*
X62200133Y-24241885D01*
X62193337Y-24250757D01*
X62186303Y-24259527D01*
X62179030Y-24268197D01*
X62171520Y-24276765D01*
X62163771Y-24285233D01*
X62155783Y-24293600D01*
X62147557Y-24301866D01*
X62139018Y-24309970D01*
X62130194Y-24317899D01*
X62121085Y-24325652D01*
X62111692Y-24333231D01*
X62102013Y-24340635D01*
X62092050Y-24347864D01*
X62081801Y-24354916D01*
X62071266Y-24361793D01*
X62060445Y-24368494D01*
X62049339Y-24375019D01*
X62037946Y-24381367D01*
X62026266Y-24387539D01*
X62014300Y-24393533D01*
X62002048Y-24399351D01*
X61989508Y-24404992D01*
X61976681Y-24410455D01*
X61963480Y-24415713D01*
X61949925Y-24420635D01*
X61936013Y-24425220D01*
X61921744Y-24429468D01*
X61907119Y-24433378D01*
X61892136Y-24436951D01*
X61876796Y-24440185D01*
X61861098Y-24443080D01*
X61845041Y-24445637D01*
X61828625Y-24447853D01*
X61811850Y-24449730D01*
X61794715Y-24451267D01*
X61759365Y-24453317D01*
X61722570Y-24454001D01*
X60626205Y-24454001D01*
X60610844Y-24453886D01*
X60595561Y-24453540D01*
X60580355Y-24452969D01*
X60565227Y-24452175D01*
X60550176Y-24451161D01*
X60535202Y-24449931D01*
X60520306Y-24448488D01*
X60505488Y-24446835D01*
X60498097Y-24445863D01*
X60490805Y-24444755D01*
X60483614Y-24443511D01*
X60476522Y-24442130D01*
X60469529Y-24440613D01*
X60462635Y-24438960D01*
X60455840Y-24437170D01*
X60449144Y-24435242D01*
X60442547Y-24433178D01*
X60436047Y-24430976D01*
X60429646Y-24428636D01*
X60423343Y-24426158D01*
X60417137Y-24423543D01*
X60411029Y-24420789D01*
X60405018Y-24417896D01*
X60399104Y-24414865D01*
X60393334Y-24411723D01*
X60387703Y-24408393D01*
X60382212Y-24404876D01*
X60376860Y-24401171D01*
X60371647Y-24397279D01*
X60366575Y-24393200D01*
X60361642Y-24388933D01*
X60356850Y-24384479D01*
X60352199Y-24379838D01*
X60347688Y-24375009D01*
X60343318Y-24369993D01*
X60339089Y-24364790D01*
X60335001Y-24359400D01*
X60331055Y-24353822D01*
X60327251Y-24348056D01*
X60323588Y-24342104D01*
X60320132Y-24335975D01*
X60316896Y-24329579D01*
X60313881Y-24322915D01*
X60311086Y-24315984D01*
X60308513Y-24308785D01*
X60306161Y-24301320D01*
X60304032Y-24293587D01*
X60302125Y-24285588D01*
X60300440Y-24277322D01*
X60298979Y-24268790D01*
X60297742Y-24259992D01*
X60296729Y-24250928D01*
X60295940Y-24241599D01*
X60295376Y-24232004D01*
X60295037Y-24222143D01*
X60294925Y-24212018D01*
X60294925Y-23623320D01*
X60295021Y-23608851D01*
X60295310Y-23594382D01*
X60295789Y-23579913D01*
X60296458Y-23565443D01*
X60297313Y-23550974D01*
X60298355Y-23536504D01*
X60299580Y-23522035D01*
X60300988Y-23507565D01*
X60302623Y-23493367D01*
X60304735Y-23479505D01*
X60305970Y-23472700D01*
X60307325Y-23465978D01*
X60308799Y-23459341D01*
X60310393Y-23452788D01*
X60312106Y-23446319D01*
X60313939Y-23439934D01*
X60315892Y-23433632D01*
X60317964Y-23427415D01*
X60320155Y-23421282D01*
X60322466Y-23415233D01*
X60324896Y-23409267D01*
X60327446Y-23403386D01*
X60330088Y-23397589D01*
X60332898Y-23391926D01*
X60335875Y-23386400D01*
X60339020Y-23381008D01*
X60342331Y-23375751D01*
X60345810Y-23370629D01*
X60349455Y-23365641D01*
X60353267Y-23360787D01*
X60357245Y-23356068D01*
X60361390Y-23351482D01*
X60365700Y-23347030D01*
X60370176Y-23342711D01*
X60374818Y-23338526D01*
X60379625Y-23334473D01*
X60384597Y-23330554D01*
X60389734Y-23326767D01*
X60395091Y-23323214D01*
X60400670Y-23319894D01*
X60406472Y-23316805D01*
X60412497Y-23313947D01*
X60418745Y-23311321D01*
X60425216Y-23308924D01*
X60431910Y-23306758D01*
X60438826Y-23304822D01*
X60445966Y-23303115D01*
X60453328Y-23301637D01*
X60460913Y-23300387D01*
X60468721Y-23299366D01*
X60476752Y-23298572D01*
X60485005Y-23298006D01*
X60493482Y-23297666D01*
X60502181Y-23297553D01*
X60510752Y-23297666D01*
X60519099Y-23298006D01*
X60527223Y-23298572D01*
X60535123Y-23299366D01*
X60542800Y-23300387D01*
X60550253Y-23301637D01*
X60557482Y-23303115D01*
X60564486Y-23304822D01*
X60571266Y-23306758D01*
X60577821Y-23308924D01*
X60584152Y-23311321D01*
X60590257Y-23313947D01*
X60596138Y-23316805D01*
X60601792Y-23319894D01*
X60607221Y-23323214D01*
X60612424Y-23326767D01*
X60617385Y-23330554D01*
X60622191Y-23334473D01*
X60626841Y-23338526D01*
X60631336Y-23342711D01*
X60635674Y-23347030D01*
X60639857Y-23351482D01*
X60643884Y-23356068D01*
X60647754Y-23360787D01*
X60651467Y-23365641D01*
X60655024Y-23370629D01*
X60658423Y-23375751D01*
X60661665Y-23381008D01*
X60664750Y-23386400D01*
X60667677Y-23391926D01*
X60670447Y-23397589D01*
X60673058Y-23403386D01*
X60677805Y-23415233D01*
X60682125Y-23427415D01*
X60686015Y-23439934D01*
X60689474Y-23452788D01*
X60692500Y-23465978D01*
X60695091Y-23479505D01*
X60697247Y-23493367D01*
X60698965Y-23507565D01*
X60700270Y-23522035D01*
X60701396Y-23536504D01*
X60702344Y-23550974D01*
X60703117Y-23565443D01*
X60703714Y-23579913D01*
X60704139Y-23594382D01*
X60704393Y-23608851D01*
X60704478Y-23623320D01*
X60704478Y-24001453D01*
X61762810Y-24001453D01*
X61769452Y-24000975D01*
X61775993Y-24000368D01*
X61782435Y-23999632D01*
X61788777Y-23998766D01*
X61795018Y-23997771D01*
X61801160Y-23996647D01*
X61807201Y-23995394D01*
X61813142Y-23994012D01*
X61818983Y-23992500D01*
X61824724Y-23990860D01*
X61830365Y-23989090D01*
X61835905Y-23987191D01*
X61841346Y-23985163D01*
X61846686Y-23983005D01*
X61851927Y-23980719D01*
X61857067Y-23978303D01*
X61861535Y-23976003D01*
X61865949Y-23973548D01*
X61870308Y-23970937D01*
X61874613Y-23968170D01*
X61878864Y-23965246D01*
X61883061Y-23962165D01*
X61887204Y-23958927D01*
X61891294Y-23955531D01*
X61895331Y-23951976D01*
X61899314Y-23948263D01*
X61903244Y-23944391D01*
X61907122Y-23940360D01*
X61910947Y-23936168D01*
X61914720Y-23931816D01*
X61918441Y-23927304D01*
X61922110Y-23922630D01*
X61925589Y-23917749D01*
X61928842Y-23912612D01*
X61931869Y-23907220D01*
X61934670Y-23901574D01*
X61937246Y-23895674D01*
X61939598Y-23889519D01*
X61941724Y-23883111D01*
X61943625Y-23876449D01*
X61945303Y-23869533D01*
X61946755Y-23862364D01*
X61947984Y-23854941D01*
X61948989Y-23847266D01*
X61949770Y-23839338D01*
X61950328Y-23831158D01*
X61950663Y-23822725D01*
X61950774Y-23814040D01*
X61950684Y-23805659D01*
X61950412Y-23797465D01*
X61949960Y-23789460D01*
X61949327Y-23781643D01*
X61948513Y-23774016D01*
X61947518Y-23766577D01*
X61946343Y-23759328D01*
X61944986Y-23752270D01*
X61943449Y-23745402D01*
X61941730Y-23738725D01*
X61939831Y-23732239D01*
X61937751Y-23725945D01*
X61935490Y-23719843D01*
X61933049Y-23713934D01*
X61930426Y-23708218D01*
X61927623Y-23702695D01*
X61924651Y-23697392D01*
X61921525Y-23692230D01*
X61918243Y-23687212D01*
X61914807Y-23682335D01*
X61911215Y-23677600D01*
X61907469Y-23673007D01*
X61903567Y-23668557D01*
X61899511Y-23664248D01*
X61895299Y-23660082D01*
X61890932Y-23656058D01*
X61886411Y-23652175D01*
X61881734Y-23648435D01*
X61876902Y-23644837D01*
X61871915Y-23641382D01*
X61866774Y-23638068D01*
X61861477Y-23634896D01*
X61855978Y-23631907D01*
X61850334Y-23629037D01*
X61844546Y-23626286D01*
X61838612Y-23623654D01*
X61832534Y-23621141D01*
X61826312Y-23618746D01*
X61819946Y-23616470D01*
X61813435Y-23614312D01*
X61806781Y-23612271D01*
X61799983Y-23610349D01*
X61785958Y-23606855D01*
X61771362Y-23603831D01*
X61756195Y-23601272D01*
X61740395Y-23599050D01*
X61724106Y-23597134D01*
X61707329Y-23595521D01*
X61690066Y-23594209D01*
X61672319Y-23593195D01*
X61654089Y-23592474D01*
X61635377Y-23592043D01*
X61616186Y-23591901D01*
X61610141Y-23591786D01*
X61604255Y-23591442D01*
X61598527Y-23590870D01*
X61592957Y-23590068D01*
X61587546Y-23589039D01*
X61582293Y-23587780D01*
X61577198Y-23586294D01*
X61572261Y-23584580D01*
X61567483Y-23582638D01*
X61562863Y-23580469D01*
X61558401Y-23578072D01*
X61554097Y-23575449D01*
X61549952Y-23572598D01*
X61545965Y-23569521D01*
X61542136Y-23566217D01*
X61538465Y-23562687D01*
X61534877Y-23559048D01*
X61531399Y-23555316D01*
X61528031Y-23551491D01*
X61524773Y-23547572D01*
X61521626Y-23543558D01*
X61518590Y-23539452D01*
X61515665Y-23535251D01*
X61512851Y-23530957D01*
X61510148Y-23526570D01*
X61507557Y-23522088D01*
X61505078Y-23517513D01*
X61502711Y-23512845D01*
X61500457Y-23508082D01*
X61498314Y-23503226D01*
X61496285Y-23498277D01*
X61494368Y-23493234D01*
X61490725Y-23483106D01*
X61487448Y-23472876D01*
X61484538Y-23462546D01*
X61482000Y-23452117D01*
X61479837Y-23441591D01*
X61478051Y-23430970D01*
X61476646Y-23420256D01*
X61475626Y-23409449D01*
X61473977Y-23388835D01*
X61472767Y-23370003D01*
X61472335Y-23361264D01*
X61472022Y-23352980D01*
X61471832Y-23345155D01*
X61471768Y-23337791D01*
X61471849Y-23327120D01*
X61472091Y-23316759D01*
X61472493Y-23306709D01*
X61473056Y-23296969D01*
X61473778Y-23287540D01*
X61474660Y-23278422D01*
X61475702Y-23269616D01*
X61476901Y-23261121D01*
X61478259Y-23252937D01*
X61479775Y-23245066D01*
X61481449Y-23237506D01*
X61483279Y-23230259D01*
X61485266Y-23223324D01*
X61487409Y-23216702D01*
X61489708Y-23210393D01*
X61492163Y-23204397D01*
X61494681Y-23198629D01*
X61497272Y-23193055D01*
X61499938Y-23187675D01*
X61502677Y-23182489D01*
X61505490Y-23177498D01*
X61508376Y-23172701D01*
X61511335Y-23168100D01*
X61514367Y-23163694D01*
X61517471Y-23159483D01*
X61520648Y-23155468D01*
X61523898Y-23151648D01*
X61527219Y-23148025D01*
X61530612Y-23144597D01*
X61534077Y-23141367D01*
X61537614Y-23138332D01*
X61541221Y-23135495D01*
X61544821Y-23132876D01*
X61548437Y-23130393D01*
X61552069Y-23128046D01*
X61555716Y-23125836D01*
X61559381Y-23123764D01*
X61563061Y-23121829D01*
X61566757Y-23120032D01*
X61570470Y-23118373D01*
X61574199Y-23116854D01*
X61577944Y-23115473D01*
X61581705Y-23114233D01*
X61585482Y-23113132D01*
X61589275Y-23112172D01*
X61593084Y-23111353D01*
X61596910Y-23110676D01*
X61600752Y-23110140D01*
X61608361Y-23109365D01*
X61615686Y-23108693D01*
X61622727Y-23108124D01*
X61629484Y-23107659D01*
X61635957Y-23107297D01*
X61642145Y-23107039D01*
X61648049Y-23106884D01*
X61653668Y-23106832D01*
X61666523Y-23106949D01*
G37*
G36*
X57423303Y-23918175D02*
G01*
X57502118Y-23920907D01*
X57580457Y-23925424D01*
X57658308Y-23931695D01*
X57735656Y-23939692D01*
X57812489Y-23949386D01*
X57888793Y-23960745D01*
X57964555Y-23973740D01*
X58039761Y-23988343D01*
X58114399Y-24004523D01*
X58188454Y-24022250D01*
X58261914Y-24041495D01*
X58334765Y-24062228D01*
X58406994Y-24084420D01*
X58549532Y-24133059D01*
X58405251Y-24529382D01*
X58279770Y-24486558D01*
X58152056Y-24448762D01*
X58022201Y-24416206D01*
X57956499Y-24401957D01*
X57890296Y-24389098D01*
X57823604Y-24377652D01*
X57756434Y-24367648D01*
X57688798Y-24359111D01*
X57620707Y-24352067D01*
X57552173Y-24346543D01*
X57483207Y-24342565D01*
X57413820Y-24340158D01*
X57344025Y-24339351D01*
X57274206Y-24340159D01*
X57204798Y-24342565D01*
X57135814Y-24346544D01*
X57067264Y-24352069D01*
X56999160Y-24359115D01*
X56931512Y-24367655D01*
X56864333Y-24377664D01*
X56797634Y-24389115D01*
X56731425Y-24401982D01*
X56665719Y-24416239D01*
X56600526Y-24431861D01*
X56535858Y-24448820D01*
X56471727Y-24467092D01*
X56408142Y-24486650D01*
X56282661Y-24529519D01*
X56138381Y-24133196D01*
X56280919Y-24084511D01*
X56426001Y-24041552D01*
X56573521Y-24004556D01*
X56648163Y-23988367D01*
X56723375Y-23973758D01*
X56799144Y-23960756D01*
X56875457Y-23949393D01*
X56952301Y-23939697D01*
X57029663Y-23931697D01*
X57107529Y-23925424D01*
X57185887Y-23920907D01*
X57264724Y-23918175D01*
X57344025Y-23917258D01*
X57423303Y-23918175D01*
G37*
G36*
X58549394Y-30757419D02*
G01*
X58406862Y-30806098D01*
X58261798Y-30849041D01*
X58114305Y-30886015D01*
X58039680Y-30902192D01*
X57964486Y-30916789D01*
X57888737Y-30929777D01*
X57812446Y-30941128D01*
X57735624Y-30950813D01*
X57658286Y-30958802D01*
X57580445Y-30965066D01*
X57502112Y-30969576D01*
X57423301Y-30972304D01*
X57344025Y-30973219D01*
X57264725Y-30972302D01*
X57185893Y-30969570D01*
X57107542Y-30965054D01*
X57029684Y-30958782D01*
X56952333Y-30950785D01*
X56875501Y-30941092D01*
X56799200Y-30929733D01*
X56723444Y-30916737D01*
X56648245Y-30902134D01*
X56573615Y-30885955D01*
X56499569Y-30868228D01*
X56426117Y-30848983D01*
X56353274Y-30828250D01*
X56281051Y-30806058D01*
X56138519Y-30757419D01*
X56282661Y-30361095D01*
X56408182Y-30403919D01*
X56535916Y-30441715D01*
X56665779Y-30474271D01*
X56731482Y-30488520D01*
X56797685Y-30501379D01*
X56864377Y-30512825D01*
X56931548Y-30522829D01*
X56999187Y-30531366D01*
X57067283Y-30538410D01*
X57135825Y-30543934D01*
X57204804Y-30547912D01*
X57274207Y-30550319D01*
X57344025Y-30551126D01*
X57413818Y-30550319D01*
X57483200Y-30547912D01*
X57552160Y-30543934D01*
X57620685Y-30538410D01*
X57688766Y-30531366D01*
X57756390Y-30522829D01*
X57823548Y-30512825D01*
X57890227Y-30501379D01*
X57956417Y-30488520D01*
X58022107Y-30474271D01*
X58087285Y-30458661D01*
X58151940Y-30441715D01*
X58216062Y-30423459D01*
X58279639Y-30403919D01*
X58405113Y-30361095D01*
X58549394Y-30757419D01*
G37*
G36*
X61746321Y-30442348D02*
G01*
X61763671Y-30442818D01*
X61780684Y-30443602D01*
X61797362Y-30444700D01*
X61813702Y-30446112D01*
X61829706Y-30447838D01*
X61845373Y-30449878D01*
X61860702Y-30452234D01*
X61875694Y-30454904D01*
X61890348Y-30457889D01*
X61904664Y-30461190D01*
X61918642Y-30464806D01*
X61932281Y-30468738D01*
X61945583Y-30472986D01*
X61958545Y-30477550D01*
X61971168Y-30482430D01*
X61983445Y-30487604D01*
X61995469Y-30492946D01*
X62007240Y-30498457D01*
X62018758Y-30504136D01*
X62030023Y-30509984D01*
X62041033Y-30516001D01*
X62051790Y-30522187D01*
X62062291Y-30528542D01*
X62072537Y-30535067D01*
X62082528Y-30541762D01*
X62092263Y-30548627D01*
X62101742Y-30555662D01*
X62110963Y-30562867D01*
X62119928Y-30570243D01*
X62128635Y-30577789D01*
X62137084Y-30585507D01*
X62145242Y-30593410D01*
X62153181Y-30601411D01*
X62160900Y-30609509D01*
X62168400Y-30617706D01*
X62175680Y-30626001D01*
X62182740Y-30634394D01*
X62189581Y-30642888D01*
X62196202Y-30651480D01*
X62202603Y-30660173D01*
X62208785Y-30668967D01*
X62214747Y-30677861D01*
X62220490Y-30686857D01*
X62226013Y-30695955D01*
X62231316Y-30705154D01*
X62236400Y-30714457D01*
X62241264Y-30723862D01*
X62250475Y-30742801D01*
X62259088Y-30761586D01*
X62267100Y-30780215D01*
X62274509Y-30798689D01*
X62281310Y-30817008D01*
X62287501Y-30835173D01*
X62293078Y-30853182D01*
X62298038Y-30871036D01*
X62302509Y-30888696D01*
X62306520Y-30905918D01*
X62310075Y-30922700D01*
X62313180Y-30939042D01*
X62315839Y-30954946D01*
X62318057Y-30970410D01*
X62319839Y-30985435D01*
X62321190Y-31000020D01*
X62323099Y-31027051D01*
X62324480Y-31050284D01*
X62324967Y-31060484D01*
X62325317Y-31069745D01*
X62325529Y-31078068D01*
X62325599Y-31085459D01*
X62325599Y-31134517D01*
X62325317Y-31150125D01*
X62324480Y-31169467D01*
X62323099Y-31192556D01*
X62321190Y-31219404D01*
X62319839Y-31234068D01*
X62318057Y-31249122D01*
X62315839Y-31264571D01*
X62313180Y-31280416D01*
X62310075Y-31296663D01*
X62306520Y-31313313D01*
X62302509Y-31330370D01*
X62298038Y-31347837D01*
X62293078Y-31365679D01*
X62287501Y-31383653D01*
X62281310Y-31401763D01*
X62274509Y-31420011D01*
X62267100Y-31438402D01*
X62259088Y-31456939D01*
X62250475Y-31475623D01*
X62241264Y-31494460D01*
X62236400Y-31503836D01*
X62231316Y-31513102D01*
X62226013Y-31522258D01*
X62220490Y-31531303D01*
X62214747Y-31540238D01*
X62208785Y-31549062D01*
X62202603Y-31557775D01*
X62196202Y-31566376D01*
X62189581Y-31574866D01*
X62182740Y-31583245D01*
X62175680Y-31591512D01*
X62168400Y-31599667D01*
X62160900Y-31607709D01*
X62153181Y-31615639D01*
X62145242Y-31623457D01*
X62137084Y-31631161D01*
X62128635Y-31638777D01*
X62119928Y-31646224D01*
X62110963Y-31653503D01*
X62101742Y-31660612D01*
X62092263Y-31667552D01*
X62082528Y-31674322D01*
X62072537Y-31680922D01*
X62062291Y-31687351D01*
X62051790Y-31693608D01*
X62041033Y-31699694D01*
X62030023Y-31705608D01*
X62018758Y-31711350D01*
X62007240Y-31716919D01*
X61995469Y-31722315D01*
X61983445Y-31727537D01*
X61971168Y-31732585D01*
X61958545Y-31737391D01*
X61945583Y-31741886D01*
X61932281Y-31746072D01*
X61918642Y-31749948D01*
X61904664Y-31753514D01*
X61890348Y-31756769D01*
X61875694Y-31759715D01*
X61860702Y-31762350D01*
X61845373Y-31764676D01*
X61829706Y-31766691D01*
X61797362Y-31769792D01*
X61783204Y-31770573D01*
X61763671Y-31771652D01*
X61728635Y-31772272D01*
X60865983Y-31772272D01*
X60848856Y-31772117D01*
X60832045Y-31771652D01*
X60815551Y-31770877D01*
X60799374Y-31769792D01*
X60783515Y-31768396D01*
X60767973Y-31766691D01*
X60752749Y-31764676D01*
X60737843Y-31762350D01*
X60723255Y-31759715D01*
X60708985Y-31756769D01*
X60695034Y-31753514D01*
X60681401Y-31749948D01*
X60668088Y-31746072D01*
X60655094Y-31741886D01*
X60642419Y-31737391D01*
X60630063Y-31732585D01*
X60617997Y-31727537D01*
X60606189Y-31722315D01*
X60594639Y-31716919D01*
X60583348Y-31711350D01*
X60572315Y-31705608D01*
X60561540Y-31699694D01*
X60551024Y-31693608D01*
X60540766Y-31687351D01*
X60530767Y-31680922D01*
X60521026Y-31674322D01*
X60511543Y-31667552D01*
X60502319Y-31660612D01*
X60493353Y-31653503D01*
X60484646Y-31646224D01*
X60476197Y-31638777D01*
X60468006Y-31631161D01*
X60460001Y-31623457D01*
X60452213Y-31615639D01*
X60444641Y-31607709D01*
X60437287Y-31599667D01*
X60430149Y-31591512D01*
X60423229Y-31583245D01*
X60416527Y-31574866D01*
X60410042Y-31566376D01*
X60403776Y-31557775D01*
X60397728Y-31549062D01*
X60391898Y-31540238D01*
X60386286Y-31531303D01*
X60380894Y-31522258D01*
X60375720Y-31513102D01*
X60370766Y-31503836D01*
X60366031Y-31494460D01*
X60357111Y-31475623D01*
X60348748Y-31456939D01*
X60340943Y-31438402D01*
X60333699Y-31420011D01*
X60327017Y-31401763D01*
X60320899Y-31383653D01*
X60315345Y-31365679D01*
X60310359Y-31347837D01*
X60305934Y-31330370D01*
X60301963Y-31313313D01*
X60298448Y-31296663D01*
X60295390Y-31280416D01*
X60292790Y-31264571D01*
X60290651Y-31249122D01*
X60288973Y-31234068D01*
X60287759Y-31219404D01*
X60285849Y-31192556D01*
X60284469Y-31169467D01*
X60283981Y-31159329D01*
X60283631Y-31150125D01*
X60283420Y-31141855D01*
X60283349Y-31134517D01*
X60283349Y-31111366D01*
X60655419Y-31111366D01*
X60655535Y-31119922D01*
X60655884Y-31128226D01*
X60656466Y-31136279D01*
X60657279Y-31144081D01*
X60658326Y-31151633D01*
X60659605Y-31158935D01*
X60661116Y-31165988D01*
X60662860Y-31172792D01*
X60664837Y-31179347D01*
X60667046Y-31185653D01*
X60669488Y-31191712D01*
X60672162Y-31197523D01*
X60675069Y-31203087D01*
X60678209Y-31208405D01*
X60681581Y-31213476D01*
X60685185Y-31218301D01*
X60688874Y-31222905D01*
X60692601Y-31227364D01*
X60696368Y-31231678D01*
X60700175Y-31235846D01*
X60704023Y-31239868D01*
X60707911Y-31243746D01*
X60711840Y-31247478D01*
X60715811Y-31251064D01*
X60719824Y-31254506D01*
X60723880Y-31257802D01*
X60727978Y-31260952D01*
X60732120Y-31263957D01*
X60736305Y-31266817D01*
X60740534Y-31269532D01*
X60744807Y-31272101D01*
X60749125Y-31274525D01*
X60754409Y-31276994D01*
X60759770Y-31279337D01*
X60765209Y-31281554D01*
X60770724Y-31283644D01*
X60776316Y-31285607D01*
X60781984Y-31287444D01*
X60787729Y-31289153D01*
X60793550Y-31290734D01*
X60799447Y-31292189D01*
X60805419Y-31293515D01*
X60811467Y-31294713D01*
X60817590Y-31295784D01*
X60823788Y-31296725D01*
X60830062Y-31297539D01*
X60836409Y-31298223D01*
X60842832Y-31298779D01*
X61783204Y-31298779D01*
X61789844Y-31298223D01*
X61796381Y-31297539D01*
X61802814Y-31296725D01*
X61809143Y-31295784D01*
X61815368Y-31294713D01*
X61821489Y-31293515D01*
X61827505Y-31292189D01*
X61833416Y-31290734D01*
X61839223Y-31289153D01*
X61844924Y-31287444D01*
X61850520Y-31285607D01*
X61856010Y-31283644D01*
X61861394Y-31281554D01*
X61866673Y-31279337D01*
X61871845Y-31276994D01*
X61876911Y-31274525D01*
X61881429Y-31272101D01*
X61885889Y-31269532D01*
X61890290Y-31266817D01*
X61894632Y-31263957D01*
X61898914Y-31260952D01*
X61903135Y-31257802D01*
X61907296Y-31254506D01*
X61911396Y-31251064D01*
X61915435Y-31247478D01*
X61919412Y-31243746D01*
X61923327Y-31239868D01*
X61927179Y-31235846D01*
X61930968Y-31231678D01*
X61934694Y-31227364D01*
X61938356Y-31222905D01*
X61941954Y-31218301D01*
X61945433Y-31213476D01*
X61948685Y-31208405D01*
X61951712Y-31203087D01*
X61954514Y-31197523D01*
X61957090Y-31191712D01*
X61959441Y-31185653D01*
X61961567Y-31179347D01*
X61963469Y-31172792D01*
X61965146Y-31165988D01*
X61966599Y-31158935D01*
X61967827Y-31151633D01*
X61968832Y-31144081D01*
X61969613Y-31136279D01*
X61970171Y-31128226D01*
X61970506Y-31119922D01*
X61970617Y-31111366D01*
X61970506Y-31102655D01*
X61970171Y-31094196D01*
X61969613Y-31085989D01*
X61968832Y-31078035D01*
X61967827Y-31070331D01*
X61966599Y-31062880D01*
X61965146Y-31055681D01*
X61963469Y-31048734D01*
X61961567Y-31042039D01*
X61959441Y-31035595D01*
X61957090Y-31029404D01*
X61954514Y-31023464D01*
X61951712Y-31017777D01*
X61948685Y-31012341D01*
X61945433Y-31007157D01*
X61941954Y-31002225D01*
X61938356Y-30997545D01*
X61934694Y-30993014D01*
X61930968Y-30988633D01*
X61927179Y-30984401D01*
X61923327Y-30980320D01*
X61919412Y-30976389D01*
X61915435Y-30972609D01*
X61911396Y-30968980D01*
X61907296Y-30965503D01*
X61903135Y-30962179D01*
X61898914Y-30959007D01*
X61894632Y-30955988D01*
X61890290Y-30953122D01*
X61885889Y-30950410D01*
X61881429Y-30947853D01*
X61876911Y-30945450D01*
X61871845Y-30942836D01*
X61866673Y-30940367D01*
X61861394Y-30938043D01*
X61856010Y-30935866D01*
X61850520Y-30933835D01*
X61844924Y-30931950D01*
X61839223Y-30930212D01*
X61833416Y-30928621D01*
X61827505Y-30927176D01*
X61821489Y-30925879D01*
X61815368Y-30924729D01*
X61809143Y-30923727D01*
X61802814Y-30922872D01*
X61796381Y-30922165D01*
X61789844Y-30921607D01*
X61783204Y-30921197D01*
X60842832Y-30921197D01*
X60836409Y-30921607D01*
X60830062Y-30922165D01*
X60823788Y-30922872D01*
X60817590Y-30923727D01*
X60811467Y-30924729D01*
X60805419Y-30925879D01*
X60799447Y-30927176D01*
X60793550Y-30928621D01*
X60787729Y-30930212D01*
X60781984Y-30931950D01*
X60776316Y-30933835D01*
X60770724Y-30935866D01*
X60765209Y-30938043D01*
X60759770Y-30940367D01*
X60754409Y-30942836D01*
X60749125Y-30945450D01*
X60744807Y-30947853D01*
X60740534Y-30950410D01*
X60736305Y-30953122D01*
X60732120Y-30955988D01*
X60727978Y-30959007D01*
X60723880Y-30962179D01*
X60719824Y-30965503D01*
X60715811Y-30968980D01*
X60711840Y-30972609D01*
X60707911Y-30976389D01*
X60704023Y-30980320D01*
X60700175Y-30984401D01*
X60696368Y-30988633D01*
X60692601Y-30993014D01*
X60688874Y-30997545D01*
X60685185Y-31002225D01*
X60681581Y-31007157D01*
X60678209Y-31012341D01*
X60675069Y-31017777D01*
X60672162Y-31023464D01*
X60669488Y-31029404D01*
X60667046Y-31035595D01*
X60664837Y-31042039D01*
X60662860Y-31048734D01*
X60661116Y-31055681D01*
X60659605Y-31062880D01*
X60658326Y-31070331D01*
X60657279Y-31078035D01*
X60656466Y-31085989D01*
X60655884Y-31094196D01*
X60655535Y-31102655D01*
X60655419Y-31111366D01*
X60283349Y-31111366D01*
X60283349Y-31085459D01*
X60283631Y-31069745D01*
X60284469Y-31050284D01*
X60285849Y-31027051D01*
X60287759Y-31000020D01*
X60288973Y-30985435D01*
X60290651Y-30970410D01*
X60292790Y-30954946D01*
X60295390Y-30939042D01*
X60298448Y-30922700D01*
X60301963Y-30905918D01*
X60305934Y-30888696D01*
X60310359Y-30871036D01*
X60315345Y-30853182D01*
X60320899Y-30835173D01*
X60327017Y-30817008D01*
X60333699Y-30798689D01*
X60340943Y-30780215D01*
X60348748Y-30761586D01*
X60357111Y-30742801D01*
X60366031Y-30723862D01*
X60370766Y-30714457D01*
X60375720Y-30705154D01*
X60380894Y-30695955D01*
X60386286Y-30686857D01*
X60391898Y-30677861D01*
X60397728Y-30668967D01*
X60403776Y-30660173D01*
X60410042Y-30651480D01*
X60416527Y-30642888D01*
X60423229Y-30634394D01*
X60430149Y-30626001D01*
X60437287Y-30617706D01*
X60444641Y-30609509D01*
X60452213Y-30601411D01*
X60460001Y-30593410D01*
X60468006Y-30585507D01*
X60476197Y-30577789D01*
X60484646Y-30570243D01*
X60493353Y-30562867D01*
X60502319Y-30555662D01*
X60511543Y-30548627D01*
X60521026Y-30541762D01*
X60530767Y-30535067D01*
X60540766Y-30528542D01*
X60551024Y-30522187D01*
X60561540Y-30516001D01*
X60572315Y-30509984D01*
X60583348Y-30504136D01*
X60594639Y-30498457D01*
X60606189Y-30492946D01*
X60617997Y-30487604D01*
X60630063Y-30482430D01*
X60642419Y-30477550D01*
X60655094Y-30472986D01*
X60668088Y-30468738D01*
X60681401Y-30464806D01*
X60695034Y-30461190D01*
X60708985Y-30457889D01*
X60723255Y-30454904D01*
X60737843Y-30452234D01*
X60752749Y-30449878D01*
X60767973Y-30447838D01*
X60783515Y-30446112D01*
X60799374Y-30444700D01*
X60832045Y-30442818D01*
X60865983Y-30442191D01*
X61728635Y-30442191D01*
X61746321Y-30442348D01*
G37*
G36*
X57407714Y-24611560D02*
G01*
X57471032Y-24613752D01*
X57533966Y-24617376D01*
X57596507Y-24622409D01*
X57658645Y-24628827D01*
X57720368Y-24636608D01*
X57781666Y-24645727D01*
X57842530Y-24656162D01*
X57902947Y-24667888D01*
X57962909Y-24680883D01*
X58022404Y-24695124D01*
X58081421Y-24710586D01*
X58139951Y-24727246D01*
X58197983Y-24745081D01*
X58312510Y-24784181D01*
X58168229Y-25180505D01*
X58070759Y-25147259D01*
X57971564Y-25117912D01*
X57870711Y-25092627D01*
X57819685Y-25081560D01*
X57768271Y-25071571D01*
X57716477Y-25062679D01*
X57664313Y-25054906D01*
X57611786Y-25048273D01*
X57558906Y-25042800D01*
X57505682Y-25038507D01*
X57452121Y-25035415D01*
X57398232Y-25033544D01*
X57344025Y-25032916D01*
X57289792Y-25033544D01*
X57235878Y-25035415D01*
X57182292Y-25038507D01*
X57129043Y-25042800D01*
X57076139Y-25048273D01*
X57023590Y-25054906D01*
X56971404Y-25062679D01*
X56919590Y-25071571D01*
X56868157Y-25081560D01*
X56817115Y-25092627D01*
X56766471Y-25104751D01*
X56716235Y-25117912D01*
X56666415Y-25132088D01*
X56617022Y-25147259D01*
X56519546Y-25180505D01*
X56375266Y-24784319D01*
X56489838Y-24745213D01*
X56606435Y-24710702D01*
X56724977Y-24680978D01*
X56784952Y-24667970D01*
X56845383Y-24656231D01*
X56906259Y-24645783D01*
X56967571Y-24636651D01*
X57029308Y-24628859D01*
X57091461Y-24622430D01*
X57154019Y-24617388D01*
X57216973Y-24613758D01*
X57280312Y-24611562D01*
X57344025Y-24610824D01*
X57407714Y-24611560D01*
G37*
G36*
X59667929Y-29192003D02*
G01*
X59607665Y-29171181D01*
X59549402Y-29147514D01*
X59493135Y-29121069D01*
X59438857Y-29091912D01*
X59386563Y-29060111D01*
X59336248Y-29025732D01*
X59287905Y-28988841D01*
X59241528Y-28949506D01*
X59154651Y-28863768D01*
X59075572Y-28769050D01*
X59004243Y-28665887D01*
X58940619Y-28554810D01*
X58884653Y-28436352D01*
X58836299Y-28311048D01*
X58795511Y-28179430D01*
X58762243Y-28042031D01*
X58736448Y-27899385D01*
X58718080Y-27752024D01*
X58707093Y-27600481D01*
X58703441Y-27445290D01*
X58707093Y-27290079D01*
X58718080Y-27138519D01*
X58726338Y-27064275D01*
X58736448Y-26991144D01*
X58748414Y-26919191D01*
X58762243Y-26848485D01*
X58777940Y-26779091D01*
X58795511Y-26711076D01*
X58814962Y-26644507D01*
X58836299Y-26579450D01*
X58859527Y-26515972D01*
X58884653Y-26454139D01*
X58911681Y-26394019D01*
X58940619Y-26335678D01*
X58971471Y-26279181D01*
X59004243Y-26224597D01*
X59038941Y-26171991D01*
X59075572Y-26121431D01*
X59114140Y-26072982D01*
X59154651Y-26026712D01*
X59197112Y-25982686D01*
X59241528Y-25940972D01*
X59287905Y-25901637D01*
X59336248Y-25864746D01*
X59386563Y-25830367D01*
X59438857Y-25798566D01*
X59493135Y-25769409D01*
X59549402Y-25742964D01*
X59607665Y-25719297D01*
X59667929Y-25698474D01*
X59667929Y-29192003D01*
G37*
G36*
X62109757Y-29152065D02*
G01*
X62118571Y-29152317D01*
X62127147Y-29152737D01*
X62135485Y-29153324D01*
X62143584Y-29154080D01*
X62151445Y-29155004D01*
X62159068Y-29156095D01*
X62166454Y-29157355D01*
X62173602Y-29158783D01*
X62180513Y-29160378D01*
X62187187Y-29162141D01*
X62193625Y-29164073D01*
X62199826Y-29166172D01*
X62205790Y-29168439D01*
X62211518Y-29170875D01*
X62217010Y-29173478D01*
X62222249Y-29176239D01*
X62227320Y-29179150D01*
X62232224Y-29182210D01*
X62236962Y-29185419D01*
X62241533Y-29188779D01*
X62245938Y-29192290D01*
X62250177Y-29195951D01*
X62254252Y-29199764D01*
X62258162Y-29203728D01*
X62261907Y-29207845D01*
X62265488Y-29212115D01*
X62268906Y-29216537D01*
X62272161Y-29221113D01*
X62275253Y-29225843D01*
X62278183Y-29230727D01*
X62280951Y-29235765D01*
X62283579Y-29241001D01*
X62286086Y-29246372D01*
X62288474Y-29251880D01*
X62290741Y-29257525D01*
X62292889Y-29263307D01*
X62294916Y-29269227D01*
X62296822Y-29275285D01*
X62298607Y-29281482D01*
X62300271Y-29287817D01*
X62301814Y-29294291D01*
X62303235Y-29300906D01*
X62304535Y-29307660D01*
X62306768Y-29321591D01*
X62308512Y-29336086D01*
X62309817Y-29351234D01*
X62310943Y-29366913D01*
X62311891Y-29383125D01*
X62312663Y-29399872D01*
X62313686Y-29434975D01*
X62314024Y-29472236D01*
X62314024Y-29881789D01*
X62313940Y-29896491D01*
X62313686Y-29911143D01*
X62313261Y-29925747D01*
X62312663Y-29940304D01*
X62311891Y-29954815D01*
X62310943Y-29969283D01*
X62309817Y-29983709D01*
X62308512Y-29998095D01*
X62307701Y-30005280D01*
X62306768Y-30012364D01*
X62305712Y-30019349D01*
X62304535Y-30026235D01*
X62303235Y-30033021D01*
X62301814Y-30039708D01*
X62300271Y-30046296D01*
X62298607Y-30052786D01*
X62296822Y-30059177D01*
X62294916Y-30065469D01*
X62292889Y-30071664D01*
X62290741Y-30077761D01*
X62288474Y-30083759D01*
X62286086Y-30089661D01*
X62283579Y-30095465D01*
X62280951Y-30101172D01*
X62278183Y-30106811D01*
X62275253Y-30112309D01*
X62272161Y-30117664D01*
X62268906Y-30122878D01*
X62265488Y-30127951D01*
X62261907Y-30132883D01*
X62258162Y-30137674D01*
X62254252Y-30142324D01*
X62250177Y-30146833D01*
X62245938Y-30151203D01*
X62241533Y-30155432D01*
X62236962Y-30159521D01*
X62232224Y-30163471D01*
X62227320Y-30167281D01*
X62222249Y-30170952D01*
X62217010Y-30174484D01*
X62211518Y-30177814D01*
X62205790Y-30180930D01*
X62199826Y-30183833D01*
X62193625Y-30186522D01*
X62187187Y-30188997D01*
X62180513Y-30191258D01*
X62173602Y-30193305D01*
X62166454Y-30195137D01*
X62159068Y-30196754D01*
X62151445Y-30198157D01*
X62143584Y-30199344D01*
X62135485Y-30200316D01*
X62127147Y-30201072D01*
X62118571Y-30201612D01*
X62109757Y-30201936D01*
X62100704Y-30202045D01*
X62091804Y-30201936D01*
X62083140Y-30201612D01*
X62074712Y-30201072D01*
X62066520Y-30200316D01*
X62058563Y-30199344D01*
X62050843Y-30198157D01*
X62043358Y-30196754D01*
X62036108Y-30195137D01*
X62029095Y-30193305D01*
X62022317Y-30191258D01*
X62015775Y-30188997D01*
X62009469Y-30186522D01*
X62003399Y-30183833D01*
X61997564Y-30180930D01*
X61991966Y-30177814D01*
X61986603Y-30174484D01*
X61981461Y-30170952D01*
X61976474Y-30167281D01*
X61971644Y-30163471D01*
X61966970Y-30159521D01*
X61962452Y-30155432D01*
X61958092Y-30151203D01*
X61953889Y-30146833D01*
X61949843Y-30142324D01*
X61945956Y-30137674D01*
X61942228Y-30132883D01*
X61938659Y-30127951D01*
X61935249Y-30122878D01*
X61931999Y-30117664D01*
X61928910Y-30112309D01*
X61925981Y-30106811D01*
X61923213Y-30101172D01*
X61920589Y-30095465D01*
X61918090Y-30089661D01*
X61915717Y-30083759D01*
X61913470Y-30077761D01*
X61911348Y-30071664D01*
X61909350Y-30065469D01*
X61907477Y-30059177D01*
X61905729Y-30052786D01*
X61902606Y-30039708D01*
X61899978Y-30026235D01*
X61897844Y-30012364D01*
X61896203Y-29998095D01*
X61894795Y-29983709D01*
X61893570Y-29969283D01*
X61892529Y-29954815D01*
X61891673Y-29940304D01*
X61891005Y-29925747D01*
X61890526Y-29911143D01*
X61890237Y-29896491D01*
X61890140Y-29881789D01*
X61890140Y-29599016D01*
X60626205Y-29599016D01*
X60595561Y-29598706D01*
X60565227Y-29597776D01*
X60535202Y-29596225D01*
X60520306Y-29595217D01*
X60505488Y-29594055D01*
X60498097Y-29593367D01*
X60490805Y-29592544D01*
X60483614Y-29591586D01*
X60476522Y-29590493D01*
X60469529Y-29589267D01*
X60462635Y-29587907D01*
X60455840Y-29586414D01*
X60449144Y-29584787D01*
X60442547Y-29583029D01*
X60436047Y-29581138D01*
X60429646Y-29579116D01*
X60423343Y-29576963D01*
X60417137Y-29574679D01*
X60411029Y-29572264D01*
X60405018Y-29569719D01*
X60399104Y-29567045D01*
X60393334Y-29564261D01*
X60387703Y-29561283D01*
X60382212Y-29558112D01*
X60376860Y-29554746D01*
X60371647Y-29551187D01*
X60366575Y-29547434D01*
X60361642Y-29543487D01*
X60356850Y-29539347D01*
X60352199Y-29535012D01*
X60347688Y-29530484D01*
X60343318Y-29525762D01*
X60339089Y-29520846D01*
X60335001Y-29515737D01*
X60331055Y-29510434D01*
X60327251Y-29504936D01*
X60323588Y-29499246D01*
X60320132Y-29493369D01*
X60316896Y-29487211D01*
X60313881Y-29480772D01*
X60311086Y-29474051D01*
X60308513Y-29467049D01*
X60306161Y-29459764D01*
X60304032Y-29452197D01*
X60302125Y-29444348D01*
X60300440Y-29436216D01*
X60298979Y-29427802D01*
X60297742Y-29419104D01*
X60296729Y-29410123D01*
X60295940Y-29400859D01*
X60295376Y-29391311D01*
X60295037Y-29381480D01*
X60294925Y-29371364D01*
X60295037Y-29361907D01*
X60295376Y-29352709D01*
X60295940Y-29343770D01*
X60296729Y-29335089D01*
X60297742Y-29326668D01*
X60298979Y-29318506D01*
X60300440Y-29310604D01*
X60302125Y-29302962D01*
X60304032Y-29295579D01*
X60306161Y-29288457D01*
X60308513Y-29281595D01*
X60311086Y-29274994D01*
X60313881Y-29268654D01*
X60316896Y-29262574D01*
X60320132Y-29256756D01*
X60323588Y-29251199D01*
X60327251Y-29245904D01*
X60331055Y-29240767D01*
X60335001Y-29235789D01*
X60339089Y-29230970D01*
X60343318Y-29226310D01*
X60347688Y-29221809D01*
X60352199Y-29217468D01*
X60356850Y-29213286D01*
X60361642Y-29209264D01*
X60366575Y-29205402D01*
X60371647Y-29201701D01*
X60376860Y-29198160D01*
X60382212Y-29194780D01*
X60387703Y-29191560D01*
X60393334Y-29188502D01*
X60399104Y-29185605D01*
X60405018Y-29182903D01*
X60411029Y-29180327D01*
X60417137Y-29177877D01*
X60423343Y-29175554D01*
X60429646Y-29173356D01*
X60436047Y-29171284D01*
X60449144Y-29167518D01*
X60462635Y-29164256D01*
X60476522Y-29161498D01*
X60490805Y-29159243D01*
X60505488Y-29157493D01*
X60520306Y-29156188D01*
X60535202Y-29155062D01*
X60550176Y-29154114D01*
X60565227Y-29153341D01*
X60580355Y-29152744D01*
X60595561Y-29152319D01*
X60610844Y-29152065D01*
X60626205Y-29151981D01*
X62100704Y-29151981D01*
X62109757Y-29152065D01*
G37*
M02*
