%TF.GenerationSoftware,KiCad,Pcbnew,7.0.8*%
%TF.CreationDate,2023-10-28T23:36:24+09:00*%
%TF.ProjectId,cw_keyboard,63775f6b-6579-4626-9f61-72642e6b6963,rev?*%
%TF.SameCoordinates,Original*%
%TF.FileFunction,Soldermask,Top*%
%TF.FilePolarity,Negative*%
%FSLAX46Y46*%
G04 Gerber Fmt 4.6, Leading zero omitted, Abs format (unit mm)*
G04 Created by KiCad (PCBNEW 7.0.8) date 2023-10-28 23:36:24*
%MOMM*%
%LPD*%
G01*
G04 APERTURE LIST*
G04 Aperture macros list*
%AMRoundRect*
0 Rectangle with rounded corners*
0 $1 Rounding radius*
0 $2 $3 $4 $5 $6 $7 $8 $9 X,Y pos of 4 corners*
0 Add a 4 corners polygon primitive as box body*
4,1,4,$2,$3,$4,$5,$6,$7,$8,$9,$2,$3,0*
0 Add four circle primitives for the rounded corners*
1,1,$1+$1,$2,$3*
1,1,$1+$1,$4,$5*
1,1,$1+$1,$6,$7*
1,1,$1+$1,$8,$9*
0 Add four rect primitives between the rounded corners*
20,1,$1+$1,$2,$3,$4,$5,0*
20,1,$1+$1,$4,$5,$6,$7,0*
20,1,$1+$1,$6,$7,$8,$9,0*
20,1,$1+$1,$8,$9,$2,$3,0*%
G04 Aperture macros list end*
%ADD10C,0.150000*%
%ADD11C,1.700000*%
%ADD12O,1.700000X1.700000*%
%ADD13RoundRect,0.237500X-0.250000X-0.237500X0.250000X-0.237500X0.250000X0.237500X-0.250000X0.237500X0*%
%ADD14RoundRect,0.237500X-0.287500X-0.237500X0.287500X-0.237500X0.287500X0.237500X-0.287500X0.237500X0*%
%ADD15O,1.600000X1.600000*%
%ADD16R,1.600000X1.600000*%
%ADD17RoundRect,0.237500X0.250000X0.237500X-0.250000X0.237500X-0.250000X-0.237500X0.250000X-0.237500X0*%
%ADD18RoundRect,0.200000X3.800000X-0.800000X3.800000X0.800000X-3.800000X0.800000X-3.800000X-0.800000X0*%
%ADD19RoundRect,0.200000X3.300000X-0.800000X3.300000X0.800000X-3.300000X0.800000X-3.300000X-0.800000X0*%
%ADD20R,0.900000X0.800000*%
G04 APERTURE END LIST*
D10*
X54000000Y-22000000D02*
X63000000Y-22000000D01*
X63000000Y-33000000D01*
X54000000Y-33000000D01*
X54000000Y-22000000D01*
G36*
X54000000Y-22000000D02*
G01*
X63000000Y-22000000D01*
X63000000Y-33000000D01*
X54000000Y-33000000D01*
X54000000Y-22000000D01*
G37*
D11*
%TO.C,Y1*%
X51435000Y-24130000D03*
D12*
X51435000Y-26670000D03*
X51435000Y-29210000D03*
%TD*%
D13*
%TO.C,R2*%
X29487500Y-28575000D03*
X27662500Y-28575000D03*
%TD*%
D14*
%TO.C,D3*%
X27700000Y-22860000D03*
X29450000Y-22860000D03*
%TD*%
D15*
%TO.C,U1*%
X32385000Y-23495000D03*
X34925000Y-23495000D03*
X37465000Y-23495000D03*
X40005000Y-23495000D03*
X42545000Y-23495000D03*
X45085000Y-23495000D03*
X47625000Y-23495000D03*
X47625000Y-31115000D03*
X45085000Y-31115000D03*
X42545000Y-31115000D03*
X40005000Y-31115000D03*
X37465000Y-31115000D03*
X34925000Y-31115000D03*
D16*
X32385000Y-31115000D03*
%TD*%
D17*
%TO.C,R3*%
X52347500Y-31750000D03*
X50522500Y-31750000D03*
%TD*%
D18*
%TO.C,J1*%
X18505000Y-24200000D03*
D19*
X19005000Y-26400000D03*
X19005000Y-28600000D03*
D18*
X18505000Y-30800000D03*
%TD*%
D13*
%TO.C,R4*%
X27662500Y-24765000D03*
X29487500Y-24765000D03*
%TD*%
D17*
%TO.C,R5*%
X27662500Y-31115000D03*
X29487500Y-31115000D03*
%TD*%
D20*
%TO.C,D2*%
X25908000Y-30260000D03*
X25908000Y-28160000D03*
%TD*%
D13*
%TO.C,R1*%
X27662500Y-26670000D03*
X29487500Y-26670000D03*
%TD*%
D20*
%TO.C,D1*%
X25908000Y-26450000D03*
X25908000Y-24350000D03*
%TD*%
M02*
